<?xml version="1.0" encoding="UTF-8"?>
<!DOCTYPE svg PUBLIC "-//W3C//DTD SVG 1.1//EN" "http://www.w3.org/Graphics/SVG/1.1/DTD/svg11.dtd">
<!-- Creator: CorelDRAW 2020 (64-Bit Evaluation Version) -->
<svg xmlns="http://www.w3.org/2000/svg" xml:space="preserve" width="350mm" height="250mm" version="1.1" style="shape-rendering:geometricPrecision; text-rendering:geometricPrecision; image-rendering:optimizeQuality; fill-rule:evenodd; clip-rule:evenodd"
viewBox="0 0 35000 25000"
 xmlns:xlink="http://www.w3.org/1999/xlink"
 xmlns:xodm="http://www.corel.com/coreldraw/odm/2003">
 <defs>
  <style type="text/css">
   <![CDATA[
    .fil0 {fill:#002253}
    .fil4 {fill:#F4511E}
    .fil2 {fill:white}
    .fil1 {fill:#002253;fill-rule:nonzero}
    .fil5 {fill:#F4511E;fill-rule:nonzero}
    .fil3 {fill:white;fill-rule:nonzero}
   ]]>
  </style>
 </defs>
 <g id="Layer_x0020_1">
  <metadata id="CorelCorpID_0Corel-Layer"/>
  <g id="_2010962078368">
   <path class="fil0" d="M6850.67 8079.4l0 -1726.41c-1726.41,0 -3452.81,0 -5179.22,0 0,1726.41 0,3452.81 0,5179.22l1726.41 0 0 -3452.81 3452.81 0zm7041.52 3452.78c0,-1726.38 0,-3452.78 0,-5179.19l5179.21 0 0 1726.41 -3452.81 0 0 1726.4 3452.81 0 0 1726.38 -5179.21 0zm-6110.37 -1726.38l0 1726.41 5179.22 0c0,-1726.41 0,-3452.81 0,-5179.22l-5179.22 0 0 1726.41 3452.81 0 0 1726.4 -3452.81 0z"/>
   <polygon class="fil1" points="1703.82,15134.69 1703.82,13136.71 2924.8,13136.71 2924.8,13514.11 2081.21,13514.11 2081.21,13947 2758.31,13947 2758.31,14324.4 2081.21,14324.4 2081.21,15134.69 "/>
   <path id="1" class="fil1" d="M3732.32 15179.09c-117.48,0 -213.21,-19.89 -287.21,-59.66 -74,-39.78 -131.35,-90.19 -172.51,-151.24 -41.17,-61.05 -70.76,-124.87 -88.34,-191.01 -17.57,-66.14 -28.21,-126.26 -31.91,-180.83 -3.7,-54.58 -5.55,-94.35 -5.55,-119.33l0 -840.81 382.94 0 0 707.61c0,34.23 1.85,77.7 5.55,130.89 3.7,53.19 15.27,106.84 34.69,160.49 19.43,53.64 51.34,98.51 95.28,134.58 43.93,36.08 105.91,54.11 186.38,54.11 32.38,0 67.06,-5.08 104.06,-15.26 37,-10.17 71.69,-30.06 104.06,-59.2 32.38,-29.14 59.2,-72.15 80.01,-129.03 20.82,-56.89 30.99,-131.35 30.99,-223.85l216.45 102.67c0,118.4 -24.05,229.4 -72.15,333 -48.1,103.6 -120.25,187.31 -216.91,251.13 -96.66,63.83 -218.76,95.74 -365.83,95.74zm485.62 -44.4l0 -496.72 -47.18 0 0 -1001.76 380.17 0 0 1498.48 -332.99 0z"/>
   <path id="2" class="fil1" d="M5838.52 15134.69c-103.6,19.42 -204.89,27.75 -304.32,25.44 -99.44,-2.32 -188.24,-19.89 -266.4,-52.73 -78.16,-32.83 -137.82,-85.56 -178.52,-158.63 -37,-68.45 -56.43,-138.29 -58.28,-209.05 -1.85,-70.76 -2.77,-150.77 -2.77,-240.5l0 -1279.26 377.39 0 0 1257.06c0,58.28 0.93,110.54 2.32,157.25 1.38,46.71 10.63,84.17 28.21,111.92 33.3,52.73 86.48,81.4 159.56,86.03 73.07,4.62 154.01,0.92 242.81,-11.1l0 313.57zm-1065.59 -1207.11l0 -291.37 1065.59 0 0 291.37 -1065.59 0z"/>
   <path id="3" class="fil1" d="M6729.29 15179.09c-117.48,0 -213.21,-19.89 -287.21,-59.66 -74,-39.78 -131.35,-90.19 -172.51,-151.24 -41.17,-61.05 -70.76,-124.87 -88.34,-191.01 -17.57,-66.14 -28.21,-126.26 -31.91,-180.83 -3.7,-54.58 -5.55,-94.35 -5.55,-119.33l0 -840.81 382.94 0 0 707.61c0,34.23 1.85,77.7 5.55,130.89 3.7,53.19 15.27,106.84 34.69,160.49 19.43,53.64 51.34,98.51 95.28,134.58 43.93,36.08 105.91,54.11 186.38,54.11 32.38,0 67.06,-5.08 104.06,-15.26 37,-10.17 71.69,-30.06 104.06,-59.2 32.38,-29.14 59.2,-72.15 80.01,-129.03 20.82,-56.89 30.99,-131.35 30.99,-223.85l216.45 102.67c0,118.4 -24.05,229.4 -72.15,333 -48.1,103.6 -120.25,187.31 -216.91,251.13 -96.66,63.83 -218.76,95.74 -365.83,95.74zm485.62 -44.4l0 -496.72 -47.18 0 0 -1001.76 380.17 0 0 1498.48 -332.99 0z"/>
   <path id="4" class="fil1" d="M7936.4 15134.69l0 -1498.48 332.99 0 0 366.29 -36.07 -47.17c19.42,-51.8 45.32,-98.98 77.7,-141.53 32.37,-42.55 72.15,-77.69 119.32,-105.44 36.08,-22.2 75.39,-39.78 117.94,-52.27 42.55,-12.48 86.49,-20.35 131.81,-23.58 45.32,-3.24 90.65,-1.85 135.97,3.7l0 352.42c-41.62,-12.95 -89.72,-17.58 -144.76,-13.41 -55.03,4.16 -104.98,17.11 -149.38,38.38 -44.4,20.35 -81.87,47.18 -112.39,80.94 -30.52,33.76 -53.65,73.54 -69.37,119.32 -15.73,45.79 -23.59,97.59 -23.59,154.94l0 765.89 -380.17 0z"/>
   <path id="5" class="fil1" d="M9748.46 15176.31c-153.55,0 -288.6,-33.3 -405.61,-99.43 -117.01,-66.14 -208.59,-157.25 -274.72,-273.34 -66.14,-116.08 -99.44,-248.82 -99.44,-398.67 0,-163.72 32.37,-306.17 97.12,-427.34 64.75,-121.18 154.01,-215.53 267.79,-282.59 113.77,-67.06 244.66,-100.36 392.66,-100.36 157.24,0 290.9,37 400.98,111 110.07,74 191.47,178.06 244.2,312.18 52.72,134.13 71.22,291.84 55.5,473.14l-373.24 0 0 -138.75c0,-152.62 -24.05,-262.7 -72.61,-329.76 -48.56,-67.06 -128.11,-100.36 -238.18,-100.36 -128.58,0 -222.93,38.85 -283.51,117.01 -60.59,78.16 -91.12,193.78 -91.12,346.41 0,139.67 30.53,247.43 91.12,323.74 60.58,76.32 149.38,114.7 266.86,114.7 73.99,0 137.36,-16.18 190.08,-48.56 52.73,-32.37 92.96,-79.09 120.71,-140.13l377.4 108.22c-56.43,136.9 -145.23,243.27 -266.86,319.12 -121.64,75.85 -254.84,113.77 -399.13,113.77zm-496.72 -685.41l0 -280.28 993.44 0 0 280.28 -993.44 0z"/>
   <path id="6" class="fil1" d="M11294.11 15134.69l0 -1997.98 646.57 0c15.72,0 48.1,0.46 97.12,1.39 49.02,0.92 96.2,4.16 141.52,9.71 160.95,19.43 297.39,75.39 409.31,167.89 111.93,92.5 197.02,209.97 255.3,352.42 58.27,142.45 87.41,298.31 87.41,467.58 0,169.27 -29.14,325.13 -87.41,467.58 -58.28,142.45 -143.37,259.93 -255.3,352.42 -111.92,92.5 -248.36,148.47 -409.31,167.89 -45.32,5.55 -92.5,8.79 -141.52,9.71 -49.02,0.93 -81.4,1.39 -97.12,1.39l-646.57 0zm382.94 -355.2l263.63 0c24.97,0 58.73,-0.92 101.28,-2.31 42.55,-1.39 80.94,-5.09 115.16,-11.56 86.95,-17.58 158.18,-58.28 213.21,-122.1 55.04,-63.82 95.74,-140.6 122.1,-230.32 26.36,-89.73 39.31,-182.23 39.31,-277.5 0,-99.9 -13.41,-194.71 -40.7,-284.43 -27.28,-89.73 -68.91,-165.58 -124.41,-227.55 -55.5,-61.98 -125.33,-101.29 -209.51,-117.94 -34.22,-7.4 -72.61,-11.56 -115.16,-12.48 -42.55,-0.93 -76.31,-1.39 -101.28,-1.39l-263.63 0 0 1287.58z"/>
   <path id="7" class="fil1" d="M13960.86 15176.31c-153.55,0 -288.6,-33.3 -405.61,-99.43 -117.01,-66.14 -208.59,-157.25 -274.72,-273.34 -66.14,-116.08 -99.44,-248.82 -99.44,-398.67 0,-163.72 32.37,-306.17 97.12,-427.34 64.75,-121.18 154.01,-215.53 267.79,-282.59 113.77,-67.06 244.66,-100.36 392.66,-100.36 157.24,0 290.9,37 400.98,111 110.07,74 191.47,178.06 244.2,312.18 52.72,134.13 71.22,291.84 55.5,473.14l-373.24 0 0 -138.75c0,-152.62 -24.05,-262.7 -72.61,-329.76 -48.56,-67.06 -128.11,-100.36 -238.18,-100.36 -128.58,0 -222.93,38.85 -283.51,117.01 -60.59,78.16 -91.12,193.78 -91.12,346.41 0,139.67 30.53,247.43 91.12,323.74 60.58,76.32 149.38,114.7 266.86,114.7 73.99,0 137.36,-16.18 190.08,-48.56 52.73,-32.37 92.96,-79.09 120.71,-140.13l377.4 108.22c-56.43,136.9 -145.23,243.27 -266.86,319.12 -121.64,75.85 -254.84,113.77 -399.13,113.77zm-496.72 -685.41l0 -280.28 993.44 0 0 280.28 -993.44 0z"/>
   <polygon id="8" class="fil1" points="15301.16,15134.69 14757.27,13636.21 15134.67,13636.21 15489.86,14674.04 15845.06,13636.21 16222.45,13636.21 15678.56,15134.69 "/>
   <path id="9" class="fil1" d="M17113.22 15176.31c-153.55,0 -288.6,-33.3 -405.61,-99.43 -117.01,-66.14 -208.59,-157.25 -274.72,-273.34 -66.14,-116.08 -99.44,-248.82 -99.44,-398.67 0,-163.72 32.37,-306.17 97.12,-427.34 64.75,-121.18 154.01,-215.53 267.79,-282.59 113.77,-67.06 244.66,-100.36 392.66,-100.36 157.24,0 290.9,37 400.98,111 110.07,74 191.47,178.06 244.2,312.18 52.72,134.13 71.22,291.84 55.5,473.14l-373.24 0 0 -138.75c0,-152.62 -24.05,-262.7 -72.61,-329.76 -48.56,-67.06 -128.11,-100.36 -238.18,-100.36 -128.58,0 -222.93,38.85 -283.51,117.01 -60.59,78.16 -91.12,193.78 -91.12,346.41 0,139.67 30.53,247.43 91.12,323.74 60.58,76.32 149.38,114.7 266.86,114.7 73.99,0 137.36,-16.18 190.08,-48.56 52.73,-32.37 92.96,-79.09 120.71,-140.13l377.4 108.22c-56.43,136.9 -145.23,243.27 -266.86,319.12 -121.64,75.85 -254.84,113.77 -399.13,113.77zm-496.72 -685.41l0 -280.28 993.44 0 0 280.28 -993.44 0z"/>
   <polygon id="10" class="fil1" points="18131.63,15134.69 18131.63,13095.09 18509.02,13095.09 18509.02,15134.69 "/>
   <path id="11" class="fil1" d="M19599.59 15176.31c-150.78,0 -283.05,-33.76 -396.83,-101.28 -113.77,-67.53 -202.11,-160.95 -265.47,-279.81 -63.36,-118.86 -95.27,-255.3 -95.27,-409.77 0,-156.33 32.37,-294.15 97.12,-413.01 64.75,-118.86 154.01,-211.36 267.79,-277.96 113.77,-66.6 244.66,-99.9 392.66,-99.9 150.77,0 283.51,33.76 397.74,101.29 114.24,67.52 203.04,160.48 266.86,279.35 63.83,118.86 95.74,255.75 95.74,410.23 0,155.4 -31.91,292.29 -96.2,411.16 -64.29,118.86 -153.55,211.82 -267.79,278.88 -114.23,67.06 -246.51,100.82 -396.35,100.82zm0 -352.42c121.17,0 211.82,-41.16 271.48,-123.02 59.66,-81.86 89.26,-186.85 89.26,-315.42 0,-133.2 -30.06,-239.57 -90.65,-319.12 -60.58,-79.55 -150.77,-119.33 -270.09,-119.33 -82.33,0 -149.85,18.5 -202.58,55.5 -52.72,37 -91.57,88.34 -117.01,154.01 -25.44,65.68 -38.39,141.99 -38.39,228.94 0,134.12 30.53,240.5 91.12,319.58 60.58,79.09 149.38,118.86 266.86,118.86z"/>
   <path id="12" class="fil1" d="M21400.54 15176.31c-148.92,0 -273.33,-34.68 -373.23,-104.06 -99.9,-69.37 -174.82,-163.72 -225.23,-283.04 -50.42,-119.33 -75.85,-253.91 -75.85,-403.76 0,-149.85 24.97,-284.44 74.92,-403.76 49.95,-119.32 123.49,-213.67 220.61,-283.05 97.13,-69.37 216.91,-104.06 359.36,-104.06 143.37,0 268.25,34.23 374.62,102.68 106.37,68.44 189.16,161.87 247.9,280.73 58.74,118.86 87.87,254.83 87.87,407.46 0,149.85 -28.67,284.43 -86.48,403.76 -57.82,119.32 -138.75,213.67 -242.35,283.04 -103.6,69.38 -224.31,104.06 -362.14,104.06zm-738.14 624.37l0 -2164.47 333 0 0 1026.74 47.17 0 0 1137.73 -380.17 0zm677.1 -960.14c81.39,0 147.99,-20.35 199.79,-61.05 51.8,-40.7 90.19,-95.73 115.16,-164.64 24.98,-68.92 37.47,-145.23 37.47,-229.4 0,-83.25 -12.95,-159.56 -38.85,-228.47 -25.9,-68.92 -65.68,-123.95 -119.79,-165.12 -54.11,-41.16 -123.49,-61.51 -207.66,-61.51 -78.62,0 -141.99,18.97 -190.55,56.89 -48.56,37.92 -84.17,91.11 -106.37,159.56 -22.2,68.45 -33.3,148 -33.3,238.65 0,90.65 11.1,170.2 33.3,238.65 22.2,68.44 58.74,121.63 109.15,159.56 50.41,37.92 117.47,56.88 201.65,56.88z"/>
   <path id="13" class="fil1" d="M23093.28 15176.31c-153.55,0 -288.6,-33.3 -405.61,-99.43 -117.01,-66.14 -208.59,-157.25 -274.72,-273.34 -66.14,-116.08 -99.44,-248.82 -99.44,-398.67 0,-163.72 32.37,-306.17 97.12,-427.34 64.75,-121.18 154.01,-215.53 267.79,-282.59 113.77,-67.06 244.66,-100.36 392.66,-100.36 157.24,0 290.9,37 400.98,111 110.07,74 191.47,178.06 244.2,312.18 52.72,134.13 71.22,291.84 55.5,473.14l-373.24 0 0 -138.75c0,-152.62 -24.05,-262.7 -72.61,-329.76 -48.56,-67.06 -128.11,-100.36 -238.18,-100.36 -128.58,0 -222.93,38.85 -283.51,117.01 -60.59,78.16 -91.12,193.78 -91.12,346.41 0,139.67 30.53,247.43 91.12,323.74 60.58,76.32 149.38,114.7 266.86,114.7 73.99,0 137.36,-16.18 190.08,-48.56 52.73,-32.37 92.96,-79.09 120.71,-140.13l377.4 108.22c-56.43,136.9 -145.23,243.27 -266.86,319.12 -121.64,75.85 -254.84,113.77 -399.13,113.77zm-496.72 -685.41l0 -280.28 993.44 0 0 280.28 -993.44 0z"/>
   <path id="14" class="fil1" d="M24083.94 15134.69l0 -1498.48 332.99 0 0 366.29 -36.07 -47.17c19.42,-51.8 45.32,-98.98 77.7,-141.53 32.37,-42.55 72.15,-77.69 119.32,-105.44 36.08,-22.2 75.39,-39.78 117.94,-52.27 42.55,-12.48 86.49,-20.35 131.81,-23.58 45.32,-3.24 90.65,-1.85 135.97,3.7l0 352.42c-41.62,-12.95 -89.72,-17.58 -144.76,-13.41 -55.03,4.16 -104.98,17.11 -149.38,38.38 -44.4,20.35 -81.87,47.18 -112.39,80.94 -30.52,33.76 -53.65,73.54 -69.37,119.32 -15.73,45.79 -23.59,97.59 -23.59,154.94l0 765.89 -380.17 0z"/>
   <path id="15" class="fil1" d="M25757.25 15176.31c-188.7,0 -340.86,-43.01 -456.95,-128.57 -116.08,-85.56 -186.85,-206.27 -211.82,-362.6l385.72 -58.27c15.72,70.3 50.87,125.34 104.99,165.11 54.11,39.78 122.56,59.66 205.81,59.66 68.45,0 121.17,-13.41 158.17,-39.77 37,-26.36 55.5,-62.9 55.5,-110.08 0,-29.6 -7.4,-53.64 -22.2,-71.68 -14.8,-18.04 -47.64,-35.61 -98.97,-53.19 -51.34,-17.57 -131.35,-40.7 -239.58,-69.37 -122.1,-31.45 -219.68,-66.6 -292.76,-105.45 -73.07,-38.85 -125.8,-85.56 -158.17,-139.68 -32.37,-54.11 -48.56,-119.32 -48.56,-196.09 0,-96.2 24.51,-179.91 73.53,-250.68 49.03,-70.76 118.4,-125.33 207.67,-163.72 89.26,-38.39 194.24,-57.35 315.42,-57.35 117.47,0 221.53,18.04 312.18,54.11 90.65,36.08 164.19,87.42 220.15,154.01 55.96,66.6 90.19,145.23 103.13,235.88l-385.72 69.37c-6.47,-55.5 -30.52,-99.44 -72.15,-131.81 -41.62,-32.37 -98.04,-51.34 -169.27,-56.89 -69.37,-4.62 -124.87,4.63 -166.96,27.75 -42.09,23.13 -63.36,56.43 -63.36,99.9 0,25.9 9.25,47.64 27.29,65.21 18.03,17.58 55.5,35.62 112.38,54.12 56.89,18.5 143.38,42.54 259.92,72.14 113.78,29.6 205.35,63.83 274.26,103.14 68.92,39.31 118.87,86.49 150.32,141.52 31.44,55.04 47.17,121.64 47.17,199.34 0,153.55 -55.5,274.26 -166.5,362.13 -111,87.88 -264.55,131.81 -460.64,131.81z"/>
   <path id="16" class="fil1" d="M28102.09 15176.31c-199.79,0 -371.84,-43.47 -516.6,-130.42 -144.76,-86.95 -256.23,-208.58 -334.39,-364.91 -78.16,-156.32 -117.47,-338.08 -117.47,-545.28 0,-207.2 39.31,-388.96 117.47,-545.28 78.16,-156.32 189.63,-277.96 334.39,-364.91 144.76,-86.95 316.81,-130.42 516.6,-130.42 229.4,0 422.26,56.88 578.12,170.66 155.86,113.77 265.47,267.78 329.3,462.03l-380.17 105.45c-37,-121.17 -99.44,-215.52 -187.31,-282.59 -87.88,-67.06 -201.19,-100.36 -339.94,-100.36 -126.72,0 -232.17,28.22 -316.81,84.64 -84.63,56.42 -148.46,135.97 -191.01,238.65 -42.55,102.67 -63.82,223.38 -63.82,362.13 0,138.75 21.27,259.46 63.82,362.13 42.55,102.68 106.38,182.23 191.01,238.65 84.64,56.43 190.09,84.64 316.81,84.64 138.75,0 252.06,-33.76 339.94,-101.29 87.87,-67.52 150.31,-161.41 187.31,-281.66l380.17 105.45c-63.83,194.25 -173.44,348.26 -329.3,462.03 -155.86,113.78 -348.72,170.66 -578.12,170.66z"/>
   <polygon id="17" class="fil1" points="29342.51,15134.69 29342.51,13095.09 29719.9,13095.09 29719.9,15134.69 "/>
   <path id="18" class="fil1" d="M30693.92 15179.09c-117.48,0 -213.21,-19.89 -287.21,-59.66 -74,-39.78 -131.35,-90.19 -172.51,-151.24 -41.17,-61.05 -70.76,-124.87 -88.34,-191.01 -17.57,-66.14 -28.21,-126.26 -31.91,-180.83 -3.7,-54.58 -5.55,-94.35 -5.55,-119.33l0 -840.81 382.94 0 0 707.61c0,34.23 1.85,77.7 5.55,130.89 3.7,53.19 15.27,106.84 34.69,160.49 19.43,53.64 51.34,98.51 95.28,134.58 43.93,36.08 105.91,54.11 186.38,54.11 32.38,0 67.06,-5.08 104.06,-15.26 37,-10.17 71.69,-30.06 104.06,-59.2 32.38,-29.14 59.2,-72.15 80.01,-129.03 20.82,-56.89 30.99,-131.35 30.99,-223.85l216.45 102.67c0,118.4 -24.05,229.4 -72.15,333 -48.1,103.6 -120.25,187.31 -216.91,251.13 -96.66,63.83 -218.76,95.74 -365.83,95.74zm485.62 -44.4l0 -496.72 -47.18 0 0 -1001.76 380.17 0 0 1498.48 -332.99 0z"/>
   <path id="19" class="fil1" d="M32636.39 15176.31c-148.92,0 -273.33,-34.68 -373.23,-104.06 -99.9,-69.37 -174.82,-163.72 -225.23,-283.04 -50.42,-119.33 -75.85,-253.91 -75.85,-403.76 0,-149.85 24.97,-284.44 74.92,-403.76 49.95,-119.32 123.49,-213.67 220.61,-283.05 97.13,-69.37 216.91,-104.06 359.36,-104.06 143.37,0 268.25,34.23 374.62,102.68 106.37,68.44 189.16,161.87 247.9,280.73 58.74,118.86 87.87,254.83 87.87,407.46 0,149.85 -28.67,284.43 -86.48,403.76 -57.82,119.32 -138.75,213.67 -242.35,283.04 -103.6,69.38 -224.31,104.06 -362.14,104.06zm-738.14 -41.62l0 -1997.98 380.17 0 0 971.24 -47.17 0 0 1026.74 -333 0zm677.1 -294.15c81.39,0 147.99,-20.35 199.79,-61.05 51.8,-40.7 90.19,-95.73 115.16,-164.64 24.98,-68.92 37.47,-145.23 37.47,-229.4 0,-83.25 -12.95,-159.56 -38.85,-228.47 -25.9,-68.92 -65.68,-123.95 -119.79,-165.12 -54.11,-41.16 -123.49,-61.51 -207.66,-61.51 -78.62,0 -141.99,18.97 -190.55,56.89 -48.56,37.92 -84.17,91.11 -106.37,159.56 -22.2,68.45 -33.3,148 -33.3,238.65 0,90.65 11.1,170.2 33.3,238.65 22.2,68.44 58.74,121.63 109.15,159.56 50.41,37.92 117.47,56.88 201.65,56.88z"/>
   <path id="20" class="fil1" d="M2321.26 18137.23c-127.19,0 -239.35,-26.21 -336.86,-78.63 -97.51,-52.41 -174.21,-126.41 -229.71,-222 -55.5,-95.58 -83.25,-207.35 -83.25,-335.31l0 -1062.59 171.13 -1.16 0 1041.78c0,86.33 14.65,160.72 43.94,223.54 29.29,62.83 67.83,114.47 115.24,154.94 47.4,40.47 99.05,70.53 155.32,89.8 56.27,19.27 111,28.91 164.19,28.91 53.96,0 109.07,-9.64 165.34,-28.91 56.27,-19.27 107.92,-49.33 154.94,-89.8 47.02,-40.47 85.18,-92.11 114.47,-154.94 29.29,-62.82 43.93,-137.21 43.93,-223.54l0 -1041.78 171.13 0 0 1063.75c0,127.96 -27.75,239.34 -83.25,334.54 -55.5,95.2 -131.81,169.2 -229.32,222 -97.51,52.8 -210.06,79.4 -337.24,79.4z"/>
   <path id="21" class="fil1" d="M4196.69 18102.54l0 -637.09c0,-69.38 -6.55,-133.36 -19.66,-191.56 -13.1,-58.19 -33.91,-109.07 -62.82,-152.62 -28.91,-43.55 -66.29,-77.08 -112.16,-100.98 -45.86,-23.9 -101.75,-35.84 -167.27,-35.84 -60.12,0 -112.92,10.4 -158.79,31.22 -45.86,20.81 -84.4,50.48 -115.62,89.41 -31.22,38.93 -55.12,86.34 -71.31,141.84 -16.18,55.5 -24.28,118.7 -24.28,189.62l-120.25 -26.59c0,-127.96 22.36,-235.49 67.07,-322.6 44.7,-87.1 106.37,-153.01 185,-197.72 78.62,-44.7 168.81,-67.06 270.56,-67.06 74.77,0 140.29,11.56 196.18,34.69 55.88,23.12 103.29,54.34 142.21,93.66 38.93,39.31 70.15,84.02 94.05,134.51 23.89,50.49 41.24,104.06 52.03,160.71 10.79,56.66 16.18,113.32 16.18,169.59l0 686.81 -171.12 0zm-903.03 0l0 -1248.75 153.78 0 0 307.56 17.34 0 0 941.19 -171.12 0z"/>
   <path id="22" class="fil1" d="M4691.56 16616.76l0 -190.78 169.97 0 0 190.78 -169.97 0zm0 1485.78l0 -1248.75 169.97 0 0 1248.75 -169.97 0z"/>
   <polygon id="23" class="fil1" points="5546.03,18102.54 5092.78,16853.79 5265.06,16853.79 5633.9,17880.54 6000.44,16853.79 6175.03,16853.79 5721.78,18102.54 "/>
   <path id="24" class="fil1" d="M6865.31 18137.23c-121.79,0 -227.01,-26.98 -316.04,-80.94 -89.03,-53.96 -158.41,-129.89 -207.74,-227.78 -49.33,-97.9 -74,-212.75 -74,-344.56 0,-136.44 24.28,-254.38 72.84,-353.82 48.57,-99.43 117.17,-176.13 205.43,-230.09 88.26,-53.96 192.32,-80.94 312.57,-80.94 123.34,0 228.56,28.14 315.66,84.79 87.1,56.66 153.01,137.98 197.72,243.59 44.71,105.6 65.13,231.63 61.28,378.09l-173.44 0 0 -60.12c-3.08,-161.88 -37.77,-284.06 -104.45,-366.53 -66.67,-82.48 -164.18,-123.72 -292.14,-123.72 -134.13,0 -236.65,43.55 -307.95,130.65 -71.3,87.11 -107.15,211.21 -107.15,372.32 0,157.25 35.85,279.04 107.15,365.76 71.3,86.71 172.28,130.27 303.32,130.27 89.42,0 167.66,-20.82 234.34,-62.06 66.67,-41.24 119.09,-100.59 157.63,-178.44l158.41 61.28c-49.33,108.69 -121.79,192.71 -217.76,252.45 -95.97,59.73 -204.66,89.8 -325.68,89.8zm-477.53 -611.66l0 -142.22 953.91 0 0 142.22 -953.91 0z"/>
   <path id="25" class="fil1" d="M7688.56 18102.54l0 -1248.75 152.63 0 0 300.63 -30.06 -39.32c13.87,-37 31.99,-71.3 54.34,-102.52 22.36,-31.22 46.64,-56.65 72.84,-76.7 32.38,-28.52 70.15,-50.49 113.32,-65.52 43.16,-15.03 86.72,-23.89 130.65,-26.59 43.94,-2.7 84.02,0.77 120.25,10.02l0 159.56c-45.48,-11.56 -95.19,-14.26 -149.15,-8.09 -53.96,6.17 -103.68,27.75 -149.16,64.75 -41.62,32.37 -72.84,70.92 -93.66,116.01 -20.81,45.09 -34.68,92.88 -41.62,143.37 -6.94,50.49 -10.41,100.6 -10.41,149.93l0 623.22 -169.97 0z"/>
   <path id="26" class="fil1" d="M8941.94 18136.07c-146.45,0 -266.7,-31.6 -361.13,-94.81 -94.43,-63.21 -152.63,-151.08 -174.21,-263.63l173.44 -28.9c18.5,70.91 60.89,127.19 126.8,169.2 65.91,42.01 147.23,63.2 244.35,63.2 94.82,0 169.59,-20.04 224.32,-59.74 54.73,-39.69 82.09,-93.65 82.09,-162.26 0,-38.54 -8.48,-70.14 -25.82,-94.42 -17.35,-24.28 -52.81,-46.64 -105.99,-67.45 -53.19,-20.81 -132.59,-45.48 -238.19,-74 -113.31,-30.83 -201.96,-61.67 -265.94,-92.5 -63.98,-30.83 -109.46,-66.68 -136.44,-107.15 -26.97,-40.47 -40.46,-89.8 -40.46,-148.38 0,-70.92 20.04,-133.36 60.12,-186.93 40.08,-53.57 95.58,-95.2 166.5,-124.87 70.92,-29.68 153.4,-44.33 247.44,-44.33 94.04,0 178.45,15.03 252.83,45.48 74.39,30.45 134.13,73.23 179.61,127.96 45.48,54.73 72.45,118.32 80.93,190.78l-173.43 31.22c-11.57,-73.23 -47.8,-131.43 -109.08,-174.21 -61.28,-42.78 -139.13,-64.75 -233.17,-66.29 -88.65,-2.31 -160.72,14.26 -216.22,50.1 -55.5,35.85 -83.25,83.64 -83.25,142.99 0,33.15 10.02,61.29 30.06,84.8 20.04,23.51 56.66,45.86 109.46,66.67 52.8,20.82 127.96,43.55 225.85,68.22 114.86,29.29 205.04,60.13 270.56,92.5 65.53,32.38 112.16,70.53 139.91,114.47 27.75,43.94 41.63,98.28 41.63,163.03 0,117.94 -43.56,210.44 -131.05,277.89 -87.49,67.44 -208.12,101.36 -361.52,101.36z"/>
   <path id="27" class="fil1" d="M9713.16 16616.76l0 -190.78 169.97 0 0 190.78 -169.97 0zm0 1485.78l0 -1248.75 169.97 0 0 1248.75 -169.97 0z"/>
   <path id="28" class="fil1" d="M10909.88 18102.54c-70.15,14.65 -139.14,20.43 -207.35,17.34 -68.22,-3.08 -129.12,-17.73 -182.69,-43.93 -53.57,-26.21 -94.43,-67.07 -122.18,-122.57 -22.35,-46.25 -34.3,-93.27 -36.23,-140.67 -1.93,-47.41 -3.08,-101.37 -3.08,-162.26l0 -1143.53 168.81 0 0 1136.59c0,52.42 0.77,95.97 1.93,131.04 1.15,35.07 8.86,66.29 23.51,93.27 27.75,51.65 72.07,82.48 132.58,92.5 60.51,10.02 135.28,7.71 224.7,-6.94l0 149.16zm-818.63 -1103.06l0 -145.69 818.63 0 0 145.69 -818.63 0z"/>
   <polygon id="29" class="fil1" points="11299.54,18657.54 11541.19,18001.95 11544.66,18196.2 10997.76,16853.79 11178.13,16853.79 11626.76,17976.51 11552.76,17976.51 11966.69,16853.79 12140.13,16853.79 11469.51,18657.54 "/>
   <path id="30" class="fil1" d="M13325.28 18137.23c-124.1,0 -230.09,-28.14 -317.97,-84.41 -87.87,-56.27 -155.32,-134.12 -202.34,-233.56 -47.02,-99.44 -70.53,-213.52 -70.53,-342.25 0,-131.04 23.9,-245.9 71.69,-344.56 47.79,-98.67 116.01,-175.75 204.27,-230.87 88.26,-55.11 193.09,-82.48 314.88,-82.48 124.88,0 231.64,27.75 319.9,83.64 88.26,55.88 155.71,133.35 202.34,232.4 46.64,99.06 69.76,213.14 69.76,341.87 0,131.04 -23.51,245.89 -70.53,344.95 -47.02,99.05 -114.85,176.52 -203.5,232.02 -88.64,55.5 -194.63,83.25 -317.97,83.25zm0 -163.03c138.75,0 242.05,-46.25 309.88,-138.37 67.83,-92.11 101.75,-211.59 101.75,-358.82 0,-151.08 -33.92,-271.33 -102.14,-360.75 -68.22,-89.42 -171.51,-134.13 -309.49,-134.13 -93.27,0 -169.97,20.82 -230.48,62.83 -60.51,42.01 -105.6,100.21 -135.28,174.59 -29.67,74.39 -44.71,160.33 -44.71,257.46 0,150.31 34.69,270.56 104.07,361.13 69.37,90.58 171.51,136.06 306.4,136.06z"/>
   <path id="31" class="fil1" d="M14295.37 18102.54l0 -1341.25c0,-32.37 1.93,-64.36 5.4,-95.97 3.47,-31.6 10.41,-62.05 21.2,-90.96 10.79,-28.9 27.75,-55.5 50.87,-80.16 25.44,-27.75 53.19,-48.18 83.25,-60.9 30.06,-12.72 61.67,-20.81 94.43,-24.67 32.76,-3.85 64.75,-5.78 96.35,-5.78l159.57 0 0 143.38 -148 0c-64.75,0 -112.93,15.8 -144.92,47.4 -31.99,31.61 -48.18,81.33 -48.18,149.16l0 1359.75 -169.97 0zm-216.22 -1103.06l0 -145.69 727.29 0 0 145.69 -727.29 0z"/>
   <polygon id="32" class="fil1" points="15453.93,18102.54 15453.93,16437.54 16494.56,16437.54 16494.56,16600.57 15623.9,16600.57 15623.9,17176.38 16355.81,17176.38 16355.81,17339.42 15623.9,17339.42 15623.9,17939.51 16494.56,17939.51 16494.56,18102.54 "/>
   <polygon id="33" class="fil1" points="16795.18,18102.54 16795.18,16402.85 16965.15,16402.85 16965.15,18102.54 "/>
   <path id="34" class="fil1" d="M18295.99 18137.23c-124.1,0 -230.09,-28.14 -317.97,-84.41 -87.87,-56.27 -155.32,-134.12 -202.34,-233.56 -47.02,-99.44 -70.53,-213.52 -70.53,-342.25 0,-131.04 23.9,-245.9 71.69,-344.56 47.79,-98.67 116.01,-175.75 204.27,-230.87 88.26,-55.11 193.09,-82.48 314.88,-82.48 124.88,0 231.64,27.75 319.9,83.64 88.26,55.88 155.71,133.35 202.34,232.4 46.64,99.06 69.76,213.14 69.76,341.87 0,131.04 -23.51,245.89 -70.53,344.95 -47.02,99.05 -114.85,176.52 -203.5,232.02 -88.64,55.5 -194.63,83.25 -317.97,83.25zm0 -163.03c138.75,0 242.05,-46.25 309.88,-138.37 67.83,-92.11 101.75,-211.59 101.75,-358.82 0,-151.08 -33.92,-271.33 -102.14,-360.75 -68.22,-89.42 -171.51,-134.13 -309.49,-134.13 -93.27,0 -169.97,20.82 -230.48,62.83 -60.51,42.01 -105.6,100.21 -135.28,174.59 -29.67,74.39 -44.71,160.33 -44.71,257.46 0,150.31 34.69,270.56 104.07,361.13 69.37,90.58 171.51,136.06 306.4,136.06z"/>
   <path id="35" class="fil1" d="M19619.9 18133.76c-74.77,0 -139.91,-11.56 -195.8,-34.69 -55.88,-23.12 -103.29,-54.34 -142.21,-93.65 -38.93,-39.32 -70.54,-84.41 -94.43,-134.9 -23.9,-50.49 -41.24,-104.06 -52.03,-160.72 -10.79,-56.66 -16.19,-112.93 -16.19,-169.2l0 -686.81 171.12 0 0 637.09c0,68.61 6.56,132.2 19.66,190.79 13.11,58.58 34.3,109.45 63.21,153.01 28.91,43.55 66.29,77.46 112.16,101.36 45.86,23.9 101.36,35.84 166.88,35.84 60.13,0 113.31,-10.4 159.18,-31.21 45.86,-20.82 84.4,-50.88 115.62,-89.81 31.22,-38.92 54.73,-86.33 70.92,-142.22 16.19,-55.88 24.28,-118.7 24.28,-188.85l120.25 26.59c0,127.96 -22.35,235.49 -67.06,322.6 -44.71,87.1 -106.38,153.01 -185,197.72 -78.63,44.7 -168.81,67.06 -270.56,67.06zm419.71 -31.22l0 -307.56 -17.34 0 0 -941.19 169.97 0 0 1248.75 -152.63 0z"/>
   <path id="36" class="fil1" d="M21044.39 18137.23c-121.79,0 -227.01,-26.98 -316.04,-80.94 -89.03,-53.96 -158.41,-129.89 -207.74,-227.78 -49.33,-97.9 -74,-212.75 -74,-344.56 0,-136.44 24.28,-254.38 72.84,-353.82 48.57,-99.43 117.17,-176.13 205.43,-230.09 88.26,-53.96 192.32,-80.94 312.57,-80.94 123.34,0 228.56,28.14 315.66,84.79 87.1,56.66 153.01,137.98 197.72,243.59 44.71,105.6 65.13,231.63 61.28,378.09l-173.44 0 0 -60.12c-3.08,-161.88 -37.77,-284.06 -104.45,-366.53 -66.67,-82.48 -164.18,-123.72 -292.14,-123.72 -134.13,0 -236.65,43.55 -307.95,130.65 -71.3,87.11 -107.15,211.21 -107.15,372.32 0,157.25 35.85,279.04 107.15,365.76 71.3,86.71 172.28,130.27 303.32,130.27 89.42,0 167.66,-20.82 234.34,-62.06 66.67,-41.24 119.09,-100.59 157.63,-178.44l158.41 61.28c-49.33,108.69 -121.79,192.71 -217.76,252.45 -95.97,59.73 -204.66,89.8 -325.68,89.8zm-477.53 -611.66l0 -142.22 953.91 0 0 142.22 -953.91 0z"/>
   <path id="37" class="fil1" d="M22352.11 18137.23c-116.39,0 -215.83,-29.29 -298.31,-87.49 -82.48,-58.2 -145.69,-136.82 -189.62,-236.26 -43.94,-99.44 -65.91,-211.6 -65.91,-336.47 0,-124.11 21.97,-235.88 65.52,-335.31 43.55,-99.44 105.99,-178.07 187.7,-235.88 81.71,-57.81 179.6,-86.72 293.69,-86.72 117.16,0 215.83,28.52 296,85.57 80.16,57.04 141.06,134.89 182.3,233.94 41.24,99.06 61.66,211.98 61.66,338.4 0,124.1 -20.42,235.87 -61.28,335.7 -40.85,99.82 -100.98,178.83 -180.37,237.03 -79.4,58.2 -176.52,87.49 -291.38,87.49zm17.35 -158.41c88.64,0 161.87,-21.58 219.68,-64.75 57.82,-43.17 100.98,-102.9 129.5,-178.83 28.53,-75.93 42.79,-161.88 42.79,-258.23 0,-97.9 -14.26,-184.62 -42.79,-259.77 -28.52,-75.16 -71.3,-133.74 -128.72,-176.14 -57.43,-42.39 -129.89,-63.59 -216.99,-63.59 -89.42,0 -163.42,21.97 -222,65.91 -58.59,43.93 -101.75,103.67 -129.89,179.21 -28.13,75.55 -42.4,160.34 -42.4,254.38 0,94.81 14.65,179.99 43.56,255.92 28.9,75.92 72.07,136.05 129.88,179.99 57.81,43.93 130.27,65.9 217.38,65.9zm391.97 123.72l0 -940.03 -18.5 0 0 -724.97 171.12 0 0 1665 -152.62 0z"/>
  </g>
  <g id="_2010962078128">
   <path class="fil2" d="M61392.88 20786.71l0 -1726.41c-1726.41,0 -3452.81,0 -5179.22,0 0,1726.41 0,3452.81 0,5179.22l1726.41 0 0 -3452.81 3452.81 0zm7041.52 3452.78c0,-1726.38 0,-3452.78 0,-5179.19l5179.21 0 0 1726.41 -3452.81 0 0 1726.4 3452.81 0 0 1726.38 -5179.21 0zm-6110.37 -1726.38l0 1726.41 5179.22 0c0,-1726.41 0,-3452.81 0,-5179.22l-5179.22 0 0 1726.41 3452.81 0 0 1726.4 -3452.81 0z"/>
   <polygon class="fil3" points="56246.03,27842 56246.03,25844.02 57467.01,25844.02 57467.01,26221.42 56623.42,26221.42 56623.42,26654.31 57300.52,26654.31 57300.52,27031.71 56623.42,27031.71 56623.42,27842 "/>
   <path id="1" class="fil3" d="M58274.53 27886.4c-117.48,0 -213.21,-19.89 -287.21,-59.66 -74,-39.78 -131.35,-90.19 -172.51,-151.24 -41.17,-61.05 -70.76,-124.87 -88.34,-191.01 -17.57,-66.14 -28.21,-126.26 -31.91,-180.83 -3.7,-54.58 -5.55,-94.35 -5.55,-119.33l0 -840.81 382.94 0 0 707.61c0,34.23 1.85,77.7 5.55,130.89 3.7,53.19 15.27,106.84 34.69,160.49 19.43,53.64 51.34,98.51 95.28,134.58 43.93,36.08 105.91,54.11 186.38,54.11 32.38,0 67.06,-5.08 104.06,-15.26 37,-10.17 71.69,-30.06 104.06,-59.2 32.38,-29.14 59.2,-72.15 80.01,-129.03 20.82,-56.89 30.99,-131.35 30.99,-223.85l216.45 102.67c0,118.4 -24.05,229.4 -72.15,333 -48.1,103.6 -120.25,187.31 -216.91,251.13 -96.66,63.83 -218.76,95.74 -365.83,95.74zm485.62 -44.4l0 -496.72 -47.18 0 0 -1001.76 380.17 0 0 1498.48 -332.99 0z"/>
   <path id="2" class="fil3" d="M60380.73 27842c-103.6,19.42 -204.89,27.75 -304.32,25.44 -99.44,-2.32 -188.24,-19.89 -266.4,-52.73 -78.16,-32.83 -137.82,-85.56 -178.52,-158.63 -37,-68.45 -56.43,-138.29 -58.28,-209.05 -1.85,-70.76 -2.77,-150.77 -2.77,-240.5l0 -1279.26 377.39 0 0 1257.06c0,58.28 0.93,110.54 2.32,157.25 1.38,46.71 10.63,84.17 28.21,111.92 33.3,52.73 86.48,81.4 159.56,86.03 73.07,4.62 154.01,0.92 242.81,-11.1l0 313.57zm-1065.59 -1207.11l0 -291.37 1065.59 0 0 291.37 -1065.59 0z"/>
   <path id="3" class="fil3" d="M61271.5 27886.4c-117.48,0 -213.21,-19.89 -287.21,-59.66 -74,-39.78 -131.35,-90.19 -172.51,-151.24 -41.17,-61.05 -70.76,-124.87 -88.34,-191.01 -17.57,-66.14 -28.21,-126.26 -31.91,-180.83 -3.7,-54.58 -5.55,-94.35 -5.55,-119.33l0 -840.81 382.94 0 0 707.61c0,34.23 1.85,77.7 5.55,130.89 3.7,53.19 15.27,106.84 34.69,160.49 19.43,53.64 51.34,98.51 95.28,134.58 43.93,36.08 105.91,54.11 186.38,54.11 32.38,0 67.06,-5.08 104.06,-15.26 37,-10.17 71.69,-30.06 104.06,-59.2 32.38,-29.14 59.2,-72.15 80.01,-129.03 20.82,-56.89 30.99,-131.35 30.99,-223.85l216.45 102.67c0,118.4 -24.05,229.4 -72.15,333 -48.1,103.6 -120.25,187.31 -216.91,251.13 -96.66,63.83 -218.76,95.74 -365.83,95.74zm485.62 -44.4l0 -496.72 -47.18 0 0 -1001.76 380.17 0 0 1498.48 -332.99 0z"/>
   <path id="4" class="fil3" d="M62478.61 27842l0 -1498.48 332.99 0 0 366.29 -36.07 -47.17c19.42,-51.8 45.32,-98.98 77.7,-141.53 32.37,-42.55 72.15,-77.69 119.32,-105.44 36.08,-22.2 75.39,-39.78 117.94,-52.27 42.55,-12.48 86.49,-20.35 131.81,-23.58 45.32,-3.24 90.65,-1.85 135.97,3.7l0 352.42c-41.62,-12.95 -89.72,-17.58 -144.76,-13.41 -55.03,4.16 -104.98,17.11 -149.38,38.38 -44.4,20.35 -81.87,47.18 -112.39,80.94 -30.52,33.76 -53.65,73.54 -69.37,119.32 -15.73,45.79 -23.59,97.59 -23.59,154.94l0 765.89 -380.17 0z"/>
   <path id="5" class="fil3" d="M64290.67 27883.62c-153.55,0 -288.6,-33.3 -405.61,-99.43 -117.01,-66.14 -208.59,-157.25 -274.72,-273.34 -66.14,-116.08 -99.44,-248.82 -99.44,-398.67 0,-163.72 32.37,-306.17 97.12,-427.34 64.75,-121.18 154.01,-215.53 267.79,-282.59 113.77,-67.06 244.66,-100.36 392.66,-100.36 157.24,0 290.9,37 400.98,111 110.07,74 191.47,178.06 244.2,312.18 52.72,134.13 71.22,291.84 55.5,473.14l-373.24 0 0 -138.75c0,-152.62 -24.05,-262.7 -72.61,-329.76 -48.56,-67.06 -128.11,-100.36 -238.18,-100.36 -128.58,0 -222.93,38.85 -283.51,117.01 -60.59,78.16 -91.12,193.78 -91.12,346.41 0,139.67 30.53,247.43 91.12,323.74 60.58,76.32 149.38,114.7 266.86,114.7 73.99,0 137.36,-16.18 190.08,-48.56 52.73,-32.37 92.96,-79.09 120.71,-140.13l377.4 108.22c-56.43,136.9 -145.23,243.27 -266.86,319.12 -121.64,75.85 -254.84,113.77 -399.13,113.77zm-496.72 -685.41l0 -280.28 993.44 0 0 280.28 -993.44 0z"/>
   <path id="6" class="fil3" d="M65836.32 27842l0 -1997.98 646.57 0c15.72,0 48.1,0.46 97.12,1.39 49.02,0.92 96.2,4.16 141.52,9.71 160.95,19.43 297.39,75.39 409.31,167.89 111.93,92.5 197.02,209.97 255.3,352.42 58.27,142.45 87.41,298.31 87.41,467.58 0,169.27 -29.14,325.13 -87.41,467.58 -58.28,142.45 -143.37,259.93 -255.3,352.42 -111.92,92.5 -248.36,148.47 -409.31,167.89 -45.32,5.55 -92.5,8.79 -141.52,9.71 -49.02,0.93 -81.4,1.39 -97.12,1.39l-646.57 0zm382.94 -355.2l263.63 0c24.97,0 58.73,-0.92 101.28,-2.31 42.55,-1.39 80.94,-5.09 115.16,-11.56 86.95,-17.58 158.18,-58.28 213.21,-122.1 55.04,-63.82 95.74,-140.6 122.1,-230.32 26.36,-89.73 39.31,-182.23 39.31,-277.5 0,-99.9 -13.41,-194.71 -40.7,-284.43 -27.28,-89.73 -68.91,-165.58 -124.41,-227.55 -55.5,-61.98 -125.33,-101.29 -209.51,-117.94 -34.22,-7.4 -72.61,-11.56 -115.16,-12.48 -42.55,-0.93 -76.31,-1.39 -101.28,-1.39l-263.63 0 0 1287.58z"/>
   <path id="7" class="fil3" d="M68503.07 27883.62c-153.55,0 -288.6,-33.3 -405.61,-99.43 -117.01,-66.14 -208.59,-157.25 -274.72,-273.34 -66.14,-116.08 -99.44,-248.82 -99.44,-398.67 0,-163.72 32.37,-306.17 97.12,-427.34 64.75,-121.18 154.01,-215.53 267.79,-282.59 113.77,-67.06 244.66,-100.36 392.66,-100.36 157.24,0 290.9,37 400.98,111 110.07,74 191.47,178.06 244.2,312.18 52.72,134.13 71.22,291.84 55.5,473.14l-373.24 0 0 -138.75c0,-152.62 -24.05,-262.7 -72.61,-329.76 -48.56,-67.06 -128.11,-100.36 -238.18,-100.36 -128.58,0 -222.93,38.85 -283.51,117.01 -60.59,78.16 -91.12,193.78 -91.12,346.41 0,139.67 30.53,247.43 91.12,323.74 60.58,76.32 149.38,114.7 266.86,114.7 73.99,0 137.36,-16.18 190.08,-48.56 52.73,-32.37 92.96,-79.09 120.71,-140.13l377.4 108.22c-56.43,136.9 -145.23,243.27 -266.86,319.12 -121.64,75.85 -254.84,113.77 -399.13,113.77zm-496.72 -685.41l0 -280.28 993.44 0 0 280.28 -993.44 0z"/>
   <polygon id="8" class="fil3" points="69843.37,27842 69299.48,26343.52 69676.88,26343.52 70032.07,27381.35 70387.27,26343.52 70764.66,26343.52 70220.77,27842 "/>
   <path id="9" class="fil3" d="M71655.43 27883.62c-153.55,0 -288.6,-33.3 -405.61,-99.43 -117.01,-66.14 -208.59,-157.25 -274.72,-273.34 -66.14,-116.08 -99.44,-248.82 -99.44,-398.67 0,-163.72 32.37,-306.17 97.12,-427.34 64.75,-121.18 154.01,-215.53 267.79,-282.59 113.77,-67.06 244.66,-100.36 392.66,-100.36 157.24,0 290.9,37 400.98,111 110.07,74 191.47,178.06 244.2,312.18 52.72,134.13 71.22,291.84 55.5,473.14l-373.24 0 0 -138.75c0,-152.62 -24.05,-262.7 -72.61,-329.76 -48.56,-67.06 -128.11,-100.36 -238.18,-100.36 -128.58,0 -222.93,38.85 -283.51,117.01 -60.59,78.16 -91.12,193.78 -91.12,346.41 0,139.67 30.53,247.43 91.12,323.74 60.58,76.32 149.38,114.7 266.86,114.7 73.99,0 137.36,-16.18 190.08,-48.56 52.73,-32.37 92.96,-79.09 120.71,-140.13l377.4 108.22c-56.43,136.9 -145.23,243.27 -266.86,319.12 -121.64,75.85 -254.84,113.77 -399.13,113.77zm-496.72 -685.41l0 -280.28 993.44 0 0 280.28 -993.44 0z"/>
   <polygon id="10" class="fil3" points="72673.84,27842 72673.84,25802.4 73051.23,25802.4 73051.23,27842 "/>
   <path id="11" class="fil3" d="M74141.8 27883.62c-150.78,0 -283.05,-33.76 -396.83,-101.28 -113.77,-67.53 -202.11,-160.95 -265.47,-279.81 -63.36,-118.86 -95.27,-255.3 -95.27,-409.77 0,-156.33 32.37,-294.15 97.12,-413.01 64.75,-118.86 154.01,-211.36 267.79,-277.96 113.77,-66.6 244.66,-99.9 392.66,-99.9 150.77,0 283.51,33.76 397.74,101.29 114.24,67.52 203.04,160.48 266.86,279.35 63.83,118.86 95.74,255.75 95.74,410.23 0,155.4 -31.91,292.29 -96.2,411.16 -64.29,118.86 -153.55,211.82 -267.79,278.88 -114.23,67.06 -246.51,100.82 -396.35,100.82zm0 -352.42c121.17,0 211.82,-41.16 271.48,-123.02 59.66,-81.86 89.26,-186.85 89.26,-315.42 0,-133.2 -30.06,-239.57 -90.65,-319.12 -60.58,-79.55 -150.77,-119.33 -270.09,-119.33 -82.33,0 -149.85,18.5 -202.58,55.5 -52.72,37 -91.57,88.34 -117.01,154.01 -25.44,65.68 -38.39,141.99 -38.39,228.94 0,134.12 30.53,240.5 91.12,319.58 60.58,79.09 149.38,118.86 266.86,118.86z"/>
   <path id="12" class="fil3" d="M75942.75 27883.62c-148.92,0 -273.33,-34.68 -373.23,-104.06 -99.9,-69.37 -174.82,-163.72 -225.23,-283.04 -50.42,-119.33 -75.85,-253.91 -75.85,-403.76 0,-149.85 24.97,-284.44 74.92,-403.76 49.95,-119.32 123.49,-213.67 220.61,-283.05 97.13,-69.37 216.91,-104.06 359.36,-104.06 143.37,0 268.25,34.23 374.62,102.68 106.37,68.44 189.16,161.87 247.9,280.73 58.74,118.86 87.87,254.83 87.87,407.46 0,149.85 -28.67,284.43 -86.48,403.76 -57.82,119.32 -138.75,213.67 -242.35,283.04 -103.6,69.38 -224.31,104.06 -362.14,104.06zm-738.14 624.37l0 -2164.47 333 0 0 1026.74 47.17 0 0 1137.73 -380.17 0zm677.1 -960.14c81.39,0 147.99,-20.35 199.79,-61.05 51.8,-40.7 90.19,-95.73 115.16,-164.64 24.98,-68.92 37.47,-145.23 37.47,-229.4 0,-83.25 -12.95,-159.56 -38.85,-228.47 -25.9,-68.92 -65.68,-123.95 -119.79,-165.12 -54.11,-41.16 -123.49,-61.51 -207.66,-61.51 -78.62,0 -141.99,18.97 -190.55,56.89 -48.56,37.92 -84.17,91.11 -106.37,159.56 -22.2,68.45 -33.3,148 -33.3,238.65 0,90.65 11.1,170.2 33.3,238.65 22.2,68.44 58.74,121.63 109.15,159.56 50.41,37.92 117.47,56.88 201.65,56.88z"/>
   <path id="13" class="fil3" d="M77635.49 27883.62c-153.55,0 -288.6,-33.3 -405.61,-99.43 -117.01,-66.14 -208.59,-157.25 -274.72,-273.34 -66.14,-116.08 -99.44,-248.82 -99.44,-398.67 0,-163.72 32.37,-306.17 97.12,-427.34 64.75,-121.18 154.01,-215.53 267.79,-282.59 113.77,-67.06 244.66,-100.36 392.66,-100.36 157.24,0 290.9,37 400.98,111 110.07,74 191.47,178.06 244.2,312.18 52.72,134.13 71.22,291.84 55.5,473.14l-373.24 0 0 -138.75c0,-152.62 -24.05,-262.7 -72.61,-329.76 -48.56,-67.06 -128.11,-100.36 -238.18,-100.36 -128.58,0 -222.93,38.85 -283.51,117.01 -60.59,78.16 -91.12,193.78 -91.12,346.41 0,139.67 30.53,247.43 91.12,323.74 60.58,76.32 149.38,114.7 266.86,114.7 73.99,0 137.36,-16.18 190.08,-48.56 52.73,-32.37 92.96,-79.09 120.71,-140.13l377.4 108.22c-56.43,136.9 -145.23,243.27 -266.86,319.12 -121.64,75.85 -254.84,113.77 -399.13,113.77zm-496.72 -685.41l0 -280.28 993.44 0 0 280.28 -993.44 0z"/>
   <path id="14" class="fil3" d="M78626.15 27842l0 -1498.48 332.99 0 0 366.29 -36.07 -47.17c19.42,-51.8 45.32,-98.98 77.7,-141.53 32.37,-42.55 72.15,-77.69 119.32,-105.44 36.08,-22.2 75.39,-39.78 117.94,-52.27 42.55,-12.48 86.49,-20.35 131.81,-23.58 45.32,-3.24 90.65,-1.85 135.97,3.7l0 352.42c-41.62,-12.95 -89.72,-17.58 -144.76,-13.41 -55.03,4.16 -104.98,17.11 -149.38,38.38 -44.4,20.35 -81.87,47.18 -112.39,80.94 -30.52,33.76 -53.65,73.54 -69.37,119.32 -15.73,45.79 -23.59,97.59 -23.59,154.94l0 765.89 -380.17 0z"/>
   <path id="15" class="fil3" d="M80299.46 27883.62c-188.7,0 -340.86,-43.01 -456.95,-128.57 -116.08,-85.56 -186.85,-206.27 -211.82,-362.6l385.72 -58.27c15.72,70.3 50.87,125.34 104.99,165.11 54.11,39.78 122.56,59.66 205.81,59.66 68.45,0 121.17,-13.41 158.17,-39.77 37,-26.36 55.5,-62.9 55.5,-110.08 0,-29.6 -7.4,-53.64 -22.2,-71.68 -14.8,-18.04 -47.64,-35.61 -98.97,-53.19 -51.34,-17.57 -131.35,-40.7 -239.58,-69.37 -122.1,-31.45 -219.68,-66.6 -292.76,-105.45 -73.07,-38.85 -125.8,-85.56 -158.17,-139.68 -32.37,-54.11 -48.56,-119.32 -48.56,-196.09 0,-96.2 24.51,-179.91 73.53,-250.68 49.03,-70.76 118.4,-125.33 207.67,-163.72 89.26,-38.39 194.24,-57.35 315.42,-57.35 117.47,0 221.53,18.04 312.18,54.11 90.65,36.08 164.19,87.42 220.15,154.01 55.96,66.6 90.19,145.23 103.13,235.88l-385.72 69.37c-6.47,-55.5 -30.52,-99.44 -72.15,-131.81 -41.62,-32.37 -98.04,-51.34 -169.27,-56.89 -69.37,-4.62 -124.87,4.63 -166.96,27.75 -42.09,23.13 -63.36,56.43 -63.36,99.9 0,25.9 9.25,47.64 27.29,65.21 18.03,17.58 55.5,35.62 112.38,54.12 56.89,18.5 143.38,42.54 259.92,72.14 113.78,29.6 205.35,63.83 274.26,103.14 68.92,39.31 118.87,86.49 150.32,141.52 31.44,55.04 47.17,121.64 47.17,199.34 0,153.55 -55.5,274.26 -166.5,362.13 -111,87.88 -264.55,131.81 -460.64,131.81z"/>
   <path id="16" class="fil3" d="M82644.3 27883.62c-199.79,0 -371.84,-43.47 -516.6,-130.42 -144.76,-86.95 -256.23,-208.58 -334.39,-364.91 -78.16,-156.32 -117.47,-338.08 -117.47,-545.28 0,-207.2 39.31,-388.96 117.47,-545.28 78.16,-156.32 189.63,-277.96 334.39,-364.91 144.76,-86.95 316.81,-130.42 516.6,-130.42 229.4,0 422.26,56.88 578.12,170.66 155.86,113.77 265.47,267.78 329.3,462.03l-380.17 105.45c-37,-121.17 -99.44,-215.52 -187.31,-282.59 -87.88,-67.06 -201.19,-100.36 -339.94,-100.36 -126.72,0 -232.17,28.22 -316.81,84.64 -84.63,56.42 -148.46,135.97 -191.01,238.65 -42.55,102.67 -63.82,223.38 -63.82,362.13 0,138.75 21.27,259.46 63.82,362.13 42.55,102.68 106.38,182.23 191.01,238.65 84.64,56.43 190.09,84.64 316.81,84.64 138.75,0 252.06,-33.76 339.94,-101.29 87.87,-67.52 150.31,-161.41 187.31,-281.66l380.17 105.45c-63.83,194.25 -173.44,348.26 -329.3,462.03 -155.86,113.78 -348.72,170.66 -578.12,170.66z"/>
   <polygon id="17" class="fil3" points="83884.72,27842 83884.72,25802.4 84262.11,25802.4 84262.11,27842 "/>
   <path id="18" class="fil3" d="M85236.13 27886.4c-117.48,0 -213.21,-19.89 -287.21,-59.66 -74,-39.78 -131.35,-90.19 -172.51,-151.24 -41.17,-61.05 -70.76,-124.87 -88.34,-191.01 -17.57,-66.14 -28.21,-126.26 -31.91,-180.83 -3.7,-54.58 -5.55,-94.35 -5.55,-119.33l0 -840.81 382.94 0 0 707.61c0,34.23 1.85,77.7 5.55,130.89 3.7,53.19 15.27,106.84 34.69,160.49 19.43,53.64 51.34,98.51 95.28,134.58 43.93,36.08 105.91,54.11 186.38,54.11 32.38,0 67.06,-5.08 104.06,-15.26 37,-10.17 71.69,-30.06 104.06,-59.2 32.38,-29.14 59.2,-72.15 80.01,-129.03 20.82,-56.89 30.99,-131.35 30.99,-223.85l216.45 102.67c0,118.4 -24.05,229.4 -72.15,333 -48.1,103.6 -120.25,187.31 -216.91,251.13 -96.66,63.83 -218.76,95.74 -365.83,95.74zm485.62 -44.4l0 -496.72 -47.18 0 0 -1001.76 380.17 0 0 1498.48 -332.99 0z"/>
   <path id="19" class="fil3" d="M87178.6 27883.62c-148.92,0 -273.33,-34.68 -373.23,-104.06 -99.9,-69.37 -174.82,-163.72 -225.23,-283.04 -50.42,-119.33 -75.85,-253.91 -75.85,-403.76 0,-149.85 24.97,-284.44 74.92,-403.76 49.95,-119.32 123.49,-213.67 220.61,-283.05 97.13,-69.37 216.91,-104.06 359.36,-104.06 143.37,0 268.25,34.23 374.62,102.68 106.37,68.44 189.16,161.87 247.9,280.73 58.74,118.86 87.87,254.83 87.87,407.46 0,149.85 -28.67,284.43 -86.48,403.76 -57.82,119.32 -138.75,213.67 -242.35,283.04 -103.6,69.38 -224.31,104.06 -362.14,104.06zm-738.14 -41.62l0 -1997.98 380.17 0 0 971.24 -47.17 0 0 1026.74 -333 0zm677.1 -294.15c81.39,0 147.99,-20.35 199.79,-61.05 51.8,-40.7 90.19,-95.73 115.16,-164.64 24.98,-68.92 37.47,-145.23 37.47,-229.4 0,-83.25 -12.95,-159.56 -38.85,-228.47 -25.9,-68.92 -65.68,-123.95 -119.79,-165.12 -54.11,-41.16 -123.49,-61.51 -207.66,-61.51 -78.62,0 -141.99,18.97 -190.55,56.89 -48.56,37.92 -84.17,91.11 -106.37,159.56 -22.2,68.45 -33.3,148 -33.3,238.65 0,90.65 11.1,170.2 33.3,238.65 22.2,68.44 58.74,121.63 109.15,159.56 50.41,37.92 117.47,56.88 201.65,56.88z"/>
   <path id="20" class="fil3" d="M56863.47 30844.54c-127.19,0 -239.35,-26.21 -336.86,-78.63 -97.51,-52.41 -174.21,-126.41 -229.71,-222 -55.5,-95.58 -83.25,-207.35 -83.25,-335.31l0 -1062.59 171.13 -1.16 0 1041.78c0,86.33 14.65,160.72 43.94,223.54 29.29,62.83 67.83,114.47 115.24,154.94 47.4,40.47 99.05,70.53 155.32,89.8 56.27,19.27 111,28.91 164.19,28.91 53.96,0 109.07,-9.64 165.34,-28.91 56.27,-19.27 107.92,-49.33 154.94,-89.8 47.02,-40.47 85.18,-92.11 114.47,-154.94 29.29,-62.82 43.93,-137.21 43.93,-223.54l0 -1041.78 171.13 0 0 1063.75c0,127.96 -27.75,239.34 -83.25,334.54 -55.5,95.2 -131.81,169.2 -229.32,222 -97.51,52.8 -210.06,79.4 -337.24,79.4z"/>
   <path id="21" class="fil3" d="M58738.9 30809.85l0 -637.09c0,-69.38 -6.55,-133.36 -19.66,-191.56 -13.1,-58.19 -33.91,-109.07 -62.82,-152.62 -28.91,-43.55 -66.29,-77.08 -112.16,-100.98 -45.86,-23.9 -101.75,-35.84 -167.27,-35.84 -60.12,0 -112.92,10.4 -158.79,31.22 -45.86,20.81 -84.4,50.48 -115.62,89.41 -31.22,38.93 -55.12,86.34 -71.31,141.84 -16.18,55.5 -24.28,118.7 -24.28,189.62l-120.25 -26.59c0,-127.96 22.36,-235.49 67.07,-322.6 44.7,-87.1 106.37,-153.01 185,-197.72 78.62,-44.7 168.81,-67.06 270.56,-67.06 74.77,0 140.29,11.56 196.18,34.69 55.88,23.12 103.29,54.34 142.21,93.66 38.93,39.31 70.15,84.02 94.05,134.51 23.89,50.49 41.24,104.06 52.03,160.71 10.79,56.66 16.18,113.32 16.18,169.59l0 686.81 -171.12 0zm-903.03 0l0 -1248.75 153.78 0 0 307.56 17.34 0 0 941.19 -171.12 0z"/>
   <path id="22" class="fil3" d="M59233.77 29324.07l0 -190.78 169.97 0 0 190.78 -169.97 0zm0 1485.78l0 -1248.75 169.97 0 0 1248.75 -169.97 0z"/>
   <polygon id="23" class="fil3" points="60088.24,30809.85 59634.99,29561.1 59807.27,29561.1 60176.11,30587.85 60542.65,29561.1 60717.24,29561.1 60263.99,30809.85 "/>
   <path id="24" class="fil3" d="M61407.52 30844.54c-121.79,0 -227.01,-26.98 -316.04,-80.94 -89.03,-53.96 -158.41,-129.89 -207.74,-227.78 -49.33,-97.9 -74,-212.75 -74,-344.56 0,-136.44 24.28,-254.38 72.84,-353.82 48.57,-99.43 117.17,-176.13 205.43,-230.09 88.26,-53.96 192.32,-80.94 312.57,-80.94 123.34,0 228.56,28.14 315.66,84.79 87.1,56.66 153.01,137.98 197.72,243.59 44.71,105.6 65.13,231.63 61.28,378.09l-173.44 0 0 -60.12c-3.08,-161.88 -37.77,-284.06 -104.45,-366.53 -66.67,-82.48 -164.18,-123.72 -292.14,-123.72 -134.13,0 -236.65,43.55 -307.95,130.65 -71.3,87.11 -107.15,211.21 -107.15,372.32 0,157.25 35.85,279.04 107.15,365.76 71.3,86.71 172.28,130.27 303.32,130.27 89.42,0 167.66,-20.82 234.34,-62.06 66.67,-41.24 119.09,-100.59 157.63,-178.44l158.41 61.28c-49.33,108.69 -121.79,192.71 -217.76,252.45 -95.97,59.73 -204.66,89.8 -325.68,89.8zm-477.53 -611.66l0 -142.22 953.91 0 0 142.22 -953.91 0z"/>
   <path id="25" class="fil3" d="M62230.77 30809.85l0 -1248.75 152.63 0 0 300.63 -30.06 -39.32c13.87,-37 31.99,-71.3 54.34,-102.52 22.36,-31.22 46.64,-56.65 72.84,-76.7 32.38,-28.52 70.15,-50.49 113.32,-65.52 43.16,-15.03 86.72,-23.89 130.65,-26.59 43.94,-2.7 84.02,0.77 120.25,10.02l0 159.56c-45.48,-11.56 -95.19,-14.26 -149.15,-8.09 -53.96,6.17 -103.68,27.75 -149.16,64.75 -41.62,32.37 -72.84,70.92 -93.66,116.01 -20.81,45.09 -34.68,92.88 -41.62,143.37 -6.94,50.49 -10.41,100.6 -10.41,149.93l0 623.22 -169.97 0z"/>
   <path id="26" class="fil3" d="M63484.15 30843.38c-146.45,0 -266.7,-31.6 -361.13,-94.81 -94.43,-63.21 -152.63,-151.08 -174.21,-263.63l173.44 -28.9c18.5,70.91 60.89,127.19 126.8,169.2 65.91,42.01 147.23,63.2 244.35,63.2 94.82,0 169.59,-20.04 224.32,-59.74 54.73,-39.69 82.09,-93.65 82.09,-162.26 0,-38.54 -8.48,-70.14 -25.82,-94.42 -17.35,-24.28 -52.81,-46.64 -105.99,-67.45 -53.19,-20.81 -132.59,-45.48 -238.19,-74 -113.31,-30.83 -201.96,-61.67 -265.94,-92.5 -63.98,-30.83 -109.46,-66.68 -136.44,-107.15 -26.97,-40.47 -40.46,-89.8 -40.46,-148.38 0,-70.92 20.04,-133.36 60.12,-186.93 40.08,-53.57 95.58,-95.2 166.5,-124.87 70.92,-29.68 153.4,-44.33 247.44,-44.33 94.04,0 178.45,15.03 252.83,45.48 74.39,30.45 134.13,73.23 179.61,127.96 45.48,54.73 72.45,118.32 80.93,190.78l-173.43 31.22c-11.57,-73.23 -47.8,-131.43 -109.08,-174.21 -61.28,-42.78 -139.13,-64.75 -233.17,-66.29 -88.65,-2.31 -160.72,14.26 -216.22,50.1 -55.5,35.85 -83.25,83.64 -83.25,142.99 0,33.15 10.02,61.29 30.06,84.8 20.04,23.51 56.66,45.86 109.46,66.67 52.8,20.82 127.96,43.55 225.85,68.22 114.86,29.29 205.04,60.13 270.56,92.5 65.53,32.38 112.16,70.53 139.91,114.47 27.75,43.94 41.63,98.28 41.63,163.03 0,117.94 -43.56,210.44 -131.05,277.89 -87.49,67.44 -208.12,101.36 -361.52,101.36z"/>
   <path id="27" class="fil3" d="M64255.37 29324.07l0 -190.78 169.97 0 0 190.78 -169.97 0zm0 1485.78l0 -1248.75 169.97 0 0 1248.75 -169.97 0z"/>
   <path id="28" class="fil3" d="M65452.09 30809.85c-70.15,14.65 -139.14,20.43 -207.35,17.34 -68.22,-3.08 -129.12,-17.73 -182.69,-43.93 -53.57,-26.21 -94.43,-67.07 -122.18,-122.57 -22.35,-46.25 -34.3,-93.27 -36.23,-140.67 -1.93,-47.41 -3.08,-101.37 -3.08,-162.26l0 -1143.53 168.81 0 0 1136.59c0,52.42 0.77,95.97 1.93,131.04 1.15,35.07 8.86,66.29 23.51,93.27 27.75,51.65 72.07,82.48 132.58,92.5 60.51,10.02 135.28,7.71 224.7,-6.94l0 149.16zm-818.63 -1103.06l0 -145.69 818.63 0 0 145.69 -818.63 0z"/>
   <polygon id="29" class="fil3" points="65841.75,31364.85 66083.4,30709.26 66086.87,30903.51 65539.97,29561.1 65720.34,29561.1 66168.97,30683.82 66094.97,30683.82 66508.9,29561.1 66682.34,29561.1 66011.72,31364.85 "/>
   <path id="30" class="fil3" d="M67867.49 30844.54c-124.1,0 -230.09,-28.14 -317.97,-84.41 -87.87,-56.27 -155.32,-134.12 -202.34,-233.56 -47.02,-99.44 -70.53,-213.52 -70.53,-342.25 0,-131.04 23.9,-245.9 71.69,-344.56 47.79,-98.67 116.01,-175.75 204.27,-230.87 88.26,-55.11 193.09,-82.48 314.88,-82.48 124.88,0 231.64,27.75 319.9,83.64 88.26,55.88 155.71,133.35 202.34,232.4 46.64,99.06 69.76,213.14 69.76,341.87 0,131.04 -23.51,245.89 -70.53,344.95 -47.02,99.05 -114.85,176.52 -203.5,232.02 -88.64,55.5 -194.63,83.25 -317.97,83.25zm0 -163.03c138.75,0 242.05,-46.25 309.88,-138.37 67.83,-92.11 101.75,-211.59 101.75,-358.82 0,-151.08 -33.92,-271.33 -102.14,-360.75 -68.22,-89.42 -171.51,-134.13 -309.49,-134.13 -93.27,0 -169.97,20.82 -230.48,62.83 -60.51,42.01 -105.6,100.21 -135.28,174.59 -29.67,74.39 -44.71,160.33 -44.71,257.46 0,150.31 34.69,270.56 104.07,361.13 69.37,90.58 171.51,136.06 306.4,136.06z"/>
   <path id="31" class="fil3" d="M68837.58 30809.85l0 -1341.25c0,-32.37 1.93,-64.36 5.4,-95.97 3.47,-31.6 10.41,-62.05 21.2,-90.96 10.79,-28.9 27.75,-55.5 50.87,-80.16 25.44,-27.75 53.19,-48.18 83.25,-60.9 30.06,-12.72 61.67,-20.81 94.43,-24.67 32.76,-3.85 64.75,-5.78 96.35,-5.78l159.57 0 0 143.38 -148 0c-64.75,0 -112.93,15.8 -144.92,47.4 -31.99,31.61 -48.18,81.33 -48.18,149.16l0 1359.75 -169.97 0zm-216.22 -1103.06l0 -145.69 727.29 0 0 145.69 -727.29 0z"/>
   <polygon id="32" class="fil3" points="69996.14,30809.85 69996.14,29144.85 71036.77,29144.85 71036.77,29307.88 70166.11,29307.88 70166.11,29883.69 70898.02,29883.69 70898.02,30046.73 70166.11,30046.73 70166.11,30646.82 71036.77,30646.82 71036.77,30809.85 "/>
   <polygon id="33" class="fil3" points="71337.39,30809.85 71337.39,29110.16 71507.36,29110.16 71507.36,30809.85 "/>
   <path id="34" class="fil3" d="M72838.2 30844.54c-124.1,0 -230.09,-28.14 -317.97,-84.41 -87.87,-56.27 -155.32,-134.12 -202.34,-233.56 -47.02,-99.44 -70.53,-213.52 -70.53,-342.25 0,-131.04 23.9,-245.9 71.69,-344.56 47.79,-98.67 116.01,-175.75 204.27,-230.87 88.26,-55.11 193.09,-82.48 314.88,-82.48 124.88,0 231.64,27.75 319.9,83.64 88.26,55.88 155.71,133.35 202.34,232.4 46.64,99.06 69.76,213.14 69.76,341.87 0,131.04 -23.51,245.89 -70.53,344.95 -47.02,99.05 -114.85,176.52 -203.5,232.02 -88.64,55.5 -194.63,83.25 -317.97,83.25zm0 -163.03c138.75,0 242.05,-46.25 309.88,-138.37 67.83,-92.11 101.75,-211.59 101.75,-358.82 0,-151.08 -33.92,-271.33 -102.14,-360.75 -68.22,-89.42 -171.51,-134.13 -309.49,-134.13 -93.27,0 -169.97,20.82 -230.48,62.83 -60.51,42.01 -105.6,100.21 -135.28,174.59 -29.67,74.39 -44.71,160.33 -44.71,257.46 0,150.31 34.69,270.56 104.07,361.13 69.37,90.58 171.51,136.06 306.4,136.06z"/>
   <path id="35" class="fil3" d="M74162.11 30841.07c-74.77,0 -139.91,-11.56 -195.8,-34.69 -55.88,-23.12 -103.29,-54.34 -142.21,-93.65 -38.93,-39.32 -70.54,-84.41 -94.43,-134.9 -23.9,-50.49 -41.24,-104.06 -52.03,-160.72 -10.79,-56.66 -16.19,-112.93 -16.19,-169.2l0 -686.81 171.12 0 0 637.09c0,68.61 6.56,132.2 19.66,190.79 13.11,58.58 34.3,109.45 63.21,153.01 28.91,43.55 66.29,77.46 112.16,101.36 45.86,23.9 101.36,35.84 166.88,35.84 60.13,0 113.31,-10.4 159.18,-31.21 45.86,-20.82 84.4,-50.88 115.62,-89.81 31.22,-38.92 54.73,-86.33 70.92,-142.22 16.19,-55.88 24.28,-118.7 24.28,-188.85l120.25 26.59c0,127.96 -22.35,235.49 -67.06,322.6 -44.71,87.1 -106.38,153.01 -185,197.72 -78.63,44.7 -168.81,67.06 -270.56,67.06zm419.71 -31.22l0 -307.56 -17.34 0 0 -941.19 169.97 0 0 1248.75 -152.63 0z"/>
   <path id="36" class="fil3" d="M75586.6 30844.54c-121.79,0 -227.01,-26.98 -316.04,-80.94 -89.03,-53.96 -158.41,-129.89 -207.74,-227.78 -49.33,-97.9 -74,-212.75 -74,-344.56 0,-136.44 24.28,-254.38 72.84,-353.82 48.57,-99.43 117.17,-176.13 205.43,-230.09 88.26,-53.96 192.32,-80.94 312.57,-80.94 123.34,0 228.56,28.14 315.66,84.79 87.1,56.66 153.01,137.98 197.72,243.59 44.71,105.6 65.13,231.63 61.28,378.09l-173.44 0 0 -60.12c-3.08,-161.88 -37.77,-284.06 -104.45,-366.53 -66.67,-82.48 -164.18,-123.72 -292.14,-123.72 -134.13,0 -236.65,43.55 -307.95,130.65 -71.3,87.11 -107.15,211.21 -107.15,372.32 0,157.25 35.85,279.04 107.15,365.76 71.3,86.71 172.28,130.27 303.32,130.27 89.42,0 167.66,-20.82 234.34,-62.06 66.67,-41.24 119.09,-100.59 157.63,-178.44l158.41 61.28c-49.33,108.69 -121.79,192.71 -217.76,252.45 -95.97,59.73 -204.66,89.8 -325.68,89.8zm-477.53 -611.66l0 -142.22 953.91 0 0 142.22 -953.91 0z"/>
   <path id="37" class="fil3" d="M76894.32 30844.54c-116.39,0 -215.83,-29.29 -298.31,-87.49 -82.48,-58.2 -145.69,-136.82 -189.62,-236.26 -43.94,-99.44 -65.91,-211.6 -65.91,-336.47 0,-124.11 21.97,-235.88 65.52,-335.31 43.55,-99.44 105.99,-178.07 187.7,-235.88 81.71,-57.81 179.6,-86.72 293.69,-86.72 117.16,0 215.83,28.52 296,85.57 80.16,57.04 141.06,134.89 182.3,233.94 41.24,99.06 61.66,211.98 61.66,338.4 0,124.1 -20.42,235.87 -61.28,335.7 -40.85,99.82 -100.98,178.83 -180.37,237.03 -79.4,58.2 -176.52,87.49 -291.38,87.49zm17.35 -158.41c88.64,0 161.87,-21.58 219.68,-64.75 57.82,-43.17 100.98,-102.9 129.5,-178.83 28.53,-75.93 42.79,-161.88 42.79,-258.23 0,-97.9 -14.26,-184.62 -42.79,-259.77 -28.52,-75.16 -71.3,-133.74 -128.72,-176.14 -57.43,-42.39 -129.89,-63.59 -216.99,-63.59 -89.42,0 -163.42,21.97 -222,65.91 -58.59,43.93 -101.75,103.67 -129.89,179.21 -28.13,75.55 -42.4,160.34 -42.4,254.38 0,94.81 14.65,179.99 43.56,255.92 28.9,75.92 72.07,136.05 129.88,179.99 57.81,43.93 130.27,65.9 217.38,65.9zm391.97 123.72l0 -940.03 -18.5 0 0 -724.97 171.12 0 0 1665 -152.62 0z"/>
  </g>
  <g id="_2010962077648">
   <path class="fil4" d="M61392.88 35786.71l0 -1726.41c-1726.41,0 -3452.81,0 -5179.22,0 0,1726.41 0,3452.81 0,5179.22l1726.41 0 0 -3452.81 3452.81 0zm7041.52 3452.78c0,-1726.38 0,-3452.78 0,-5179.19l5179.21 0 0 1726.41 -3452.81 0 0 1726.4 3452.81 0 0 1726.38 -5179.21 0zm-6110.37 -1726.38l0 1726.41 5179.22 0c0,-1726.41 0,-3452.81 0,-5179.22l-5179.22 0 0 1726.41 3452.81 0 0 1726.4 -3452.81 0z"/>
   <polygon class="fil5" points="56246.03,42842 56246.03,40844.02 57467.01,40844.02 57467.01,41221.42 56623.42,41221.42 56623.42,41654.31 57300.52,41654.31 57300.52,42031.71 56623.42,42031.71 56623.42,42842 "/>
   <path id="1" class="fil5" d="M58274.53 42886.4c-117.48,0 -213.21,-19.89 -287.21,-59.66 -74,-39.78 -131.35,-90.19 -172.51,-151.24 -41.17,-61.05 -70.76,-124.87 -88.34,-191.01 -17.57,-66.14 -28.21,-126.26 -31.91,-180.83 -3.7,-54.58 -5.55,-94.35 -5.55,-119.33l0 -840.81 382.94 0 0 707.61c0,34.23 1.85,77.7 5.55,130.89 3.7,53.19 15.27,106.84 34.69,160.49 19.43,53.64 51.34,98.51 95.28,134.58 43.93,36.08 105.91,54.11 186.38,54.11 32.38,0 67.06,-5.08 104.06,-15.26 37,-10.17 71.69,-30.06 104.06,-59.2 32.38,-29.14 59.2,-72.15 80.01,-129.03 20.82,-56.89 30.99,-131.35 30.99,-223.85l216.45 102.67c0,118.4 -24.05,229.4 -72.15,333 -48.1,103.6 -120.25,187.31 -216.91,251.13 -96.66,63.83 -218.76,95.74 -365.83,95.74zm485.62 -44.4l0 -496.72 -47.18 0 0 -1001.76 380.17 0 0 1498.48 -332.99 0z"/>
   <path id="2" class="fil5" d="M60380.73 42842c-103.6,19.42 -204.89,27.75 -304.32,25.44 -99.44,-2.32 -188.24,-19.89 -266.4,-52.73 -78.16,-32.83 -137.82,-85.56 -178.52,-158.63 -37,-68.45 -56.43,-138.29 -58.28,-209.05 -1.85,-70.76 -2.77,-150.77 -2.77,-240.5l0 -1279.26 377.39 0 0 1257.06c0,58.28 0.93,110.54 2.32,157.25 1.38,46.71 10.63,84.17 28.21,111.92 33.3,52.73 86.48,81.4 159.56,86.03 73.07,4.62 154.01,0.92 242.81,-11.1l0 313.57zm-1065.59 -1207.11l0 -291.37 1065.59 0 0 291.37 -1065.59 0z"/>
   <path id="3" class="fil5" d="M61271.5 42886.4c-117.48,0 -213.21,-19.89 -287.21,-59.66 -74,-39.78 -131.35,-90.19 -172.51,-151.24 -41.17,-61.05 -70.76,-124.87 -88.34,-191.01 -17.57,-66.14 -28.21,-126.26 -31.91,-180.83 -3.7,-54.58 -5.55,-94.35 -5.55,-119.33l0 -840.81 382.94 0 0 707.61c0,34.23 1.85,77.7 5.55,130.89 3.7,53.19 15.27,106.84 34.69,160.49 19.43,53.64 51.34,98.51 95.28,134.58 43.93,36.08 105.91,54.11 186.38,54.11 32.38,0 67.06,-5.08 104.06,-15.26 37,-10.17 71.69,-30.06 104.06,-59.2 32.38,-29.14 59.2,-72.15 80.01,-129.03 20.82,-56.89 30.99,-131.35 30.99,-223.85l216.45 102.67c0,118.4 -24.05,229.4 -72.15,333 -48.1,103.6 -120.25,187.31 -216.91,251.13 -96.66,63.83 -218.76,95.74 -365.83,95.74zm485.62 -44.4l0 -496.72 -47.18 0 0 -1001.76 380.17 0 0 1498.48 -332.99 0z"/>
   <path id="4" class="fil5" d="M62478.61 42842l0 -1498.48 332.99 0 0 366.29 -36.07 -47.17c19.42,-51.8 45.32,-98.98 77.7,-141.53 32.37,-42.55 72.15,-77.69 119.32,-105.44 36.08,-22.2 75.39,-39.78 117.94,-52.27 42.55,-12.48 86.49,-20.35 131.81,-23.58 45.32,-3.24 90.65,-1.85 135.97,3.7l0 352.42c-41.62,-12.95 -89.72,-17.58 -144.76,-13.41 -55.03,4.16 -104.98,17.11 -149.38,38.38 -44.4,20.35 -81.87,47.18 -112.39,80.94 -30.52,33.76 -53.65,73.54 -69.37,119.32 -15.73,45.79 -23.59,97.59 -23.59,154.94l0 765.89 -380.17 0z"/>
   <path id="5" class="fil5" d="M64290.67 42883.62c-153.55,0 -288.6,-33.3 -405.61,-99.43 -117.01,-66.14 -208.59,-157.25 -274.72,-273.34 -66.14,-116.08 -99.44,-248.82 -99.44,-398.67 0,-163.72 32.37,-306.17 97.12,-427.34 64.75,-121.18 154.01,-215.53 267.79,-282.59 113.77,-67.06 244.66,-100.36 392.66,-100.36 157.24,0 290.9,37 400.98,111 110.07,74 191.47,178.06 244.2,312.18 52.72,134.13 71.22,291.84 55.5,473.14l-373.24 0 0 -138.75c0,-152.62 -24.05,-262.7 -72.61,-329.76 -48.56,-67.06 -128.11,-100.36 -238.18,-100.36 -128.58,0 -222.93,38.85 -283.51,117.01 -60.59,78.16 -91.12,193.78 -91.12,346.41 0,139.67 30.53,247.43 91.12,323.74 60.58,76.32 149.38,114.7 266.86,114.7 73.99,0 137.36,-16.18 190.08,-48.56 52.73,-32.37 92.96,-79.09 120.71,-140.13l377.4 108.22c-56.43,136.9 -145.23,243.27 -266.86,319.12 -121.64,75.85 -254.84,113.77 -399.13,113.77zm-496.72 -685.41l0 -280.28 993.44 0 0 280.28 -993.44 0z"/>
   <path id="6" class="fil5" d="M65836.32 42842l0 -1997.98 646.57 0c15.72,0 48.1,0.46 97.12,1.39 49.02,0.92 96.2,4.16 141.52,9.71 160.95,19.43 297.39,75.39 409.31,167.89 111.93,92.5 197.02,209.97 255.3,352.42 58.27,142.45 87.41,298.31 87.41,467.58 0,169.27 -29.14,325.13 -87.41,467.58 -58.28,142.45 -143.37,259.93 -255.3,352.42 -111.92,92.5 -248.36,148.47 -409.31,167.89 -45.32,5.55 -92.5,8.79 -141.52,9.71 -49.02,0.93 -81.4,1.39 -97.12,1.39l-646.57 0zm382.94 -355.2l263.63 0c24.97,0 58.73,-0.92 101.28,-2.31 42.55,-1.39 80.94,-5.09 115.16,-11.56 86.95,-17.58 158.18,-58.28 213.21,-122.1 55.04,-63.82 95.74,-140.6 122.1,-230.32 26.36,-89.73 39.31,-182.23 39.31,-277.5 0,-99.9 -13.41,-194.71 -40.7,-284.43 -27.28,-89.73 -68.91,-165.58 -124.41,-227.55 -55.5,-61.98 -125.33,-101.29 -209.51,-117.94 -34.22,-7.4 -72.61,-11.56 -115.16,-12.48 -42.55,-0.93 -76.31,-1.39 -101.28,-1.39l-263.63 0 0 1287.58z"/>
   <path id="7" class="fil5" d="M68503.07 42883.62c-153.55,0 -288.6,-33.3 -405.61,-99.43 -117.01,-66.14 -208.59,-157.25 -274.72,-273.34 -66.14,-116.08 -99.44,-248.82 -99.44,-398.67 0,-163.72 32.37,-306.17 97.12,-427.34 64.75,-121.18 154.01,-215.53 267.79,-282.59 113.77,-67.06 244.66,-100.36 392.66,-100.36 157.24,0 290.9,37 400.98,111 110.07,74 191.47,178.06 244.2,312.18 52.72,134.13 71.22,291.84 55.5,473.14l-373.24 0 0 -138.75c0,-152.62 -24.05,-262.7 -72.61,-329.76 -48.56,-67.06 -128.11,-100.36 -238.18,-100.36 -128.58,0 -222.93,38.85 -283.51,117.01 -60.59,78.16 -91.12,193.78 -91.12,346.41 0,139.67 30.53,247.43 91.12,323.74 60.58,76.32 149.38,114.7 266.86,114.7 73.99,0 137.36,-16.18 190.08,-48.56 52.73,-32.37 92.96,-79.09 120.71,-140.13l377.4 108.22c-56.43,136.9 -145.23,243.27 -266.86,319.12 -121.64,75.85 -254.84,113.77 -399.13,113.77zm-496.72 -685.41l0 -280.28 993.44 0 0 280.28 -993.44 0z"/>
   <polygon id="8" class="fil5" points="69843.37,42842 69299.48,41343.52 69676.88,41343.52 70032.07,42381.35 70387.27,41343.52 70764.66,41343.52 70220.77,42842 "/>
   <path id="9" class="fil5" d="M71655.43 42883.62c-153.55,0 -288.6,-33.3 -405.61,-99.43 -117.01,-66.14 -208.59,-157.25 -274.72,-273.34 -66.14,-116.08 -99.44,-248.82 -99.44,-398.67 0,-163.72 32.37,-306.17 97.12,-427.34 64.75,-121.18 154.01,-215.53 267.79,-282.59 113.77,-67.06 244.66,-100.36 392.66,-100.36 157.24,0 290.9,37 400.98,111 110.07,74 191.47,178.06 244.2,312.18 52.72,134.13 71.22,291.84 55.5,473.14l-373.24 0 0 -138.75c0,-152.62 -24.05,-262.7 -72.61,-329.76 -48.56,-67.06 -128.11,-100.36 -238.18,-100.36 -128.58,0 -222.93,38.85 -283.51,117.01 -60.59,78.16 -91.12,193.78 -91.12,346.41 0,139.67 30.53,247.43 91.12,323.74 60.58,76.32 149.38,114.7 266.86,114.7 73.99,0 137.36,-16.18 190.08,-48.56 52.73,-32.37 92.96,-79.09 120.71,-140.13l377.4 108.22c-56.43,136.9 -145.23,243.27 -266.86,319.12 -121.64,75.85 -254.84,113.77 -399.13,113.77zm-496.72 -685.41l0 -280.28 993.44 0 0 280.28 -993.44 0z"/>
   <polygon id="10" class="fil5" points="72673.84,42842 72673.84,40802.4 73051.23,40802.4 73051.23,42842 "/>
   <path id="11" class="fil5" d="M74141.8 42883.62c-150.78,0 -283.05,-33.76 -396.83,-101.28 -113.77,-67.53 -202.11,-160.95 -265.47,-279.81 -63.36,-118.86 -95.27,-255.3 -95.27,-409.77 0,-156.33 32.37,-294.15 97.12,-413.01 64.75,-118.86 154.01,-211.36 267.79,-277.96 113.77,-66.6 244.66,-99.9 392.66,-99.9 150.77,0 283.51,33.76 397.74,101.29 114.24,67.52 203.04,160.48 266.86,279.35 63.83,118.86 95.74,255.75 95.74,410.23 0,155.4 -31.91,292.29 -96.2,411.16 -64.29,118.86 -153.55,211.82 -267.79,278.88 -114.23,67.06 -246.51,100.82 -396.35,100.82zm0 -352.42c121.17,0 211.82,-41.16 271.48,-123.02 59.66,-81.86 89.26,-186.85 89.26,-315.42 0,-133.2 -30.06,-239.57 -90.65,-319.12 -60.58,-79.55 -150.77,-119.33 -270.09,-119.33 -82.33,0 -149.85,18.5 -202.58,55.5 -52.72,37 -91.57,88.34 -117.01,154.01 -25.44,65.68 -38.39,141.99 -38.39,228.94 0,134.12 30.53,240.5 91.12,319.58 60.58,79.09 149.38,118.86 266.86,118.86z"/>
   <path id="12" class="fil5" d="M75942.75 42883.62c-148.92,0 -273.33,-34.68 -373.23,-104.06 -99.9,-69.37 -174.82,-163.72 -225.23,-283.04 -50.42,-119.33 -75.85,-253.91 -75.85,-403.76 0,-149.85 24.97,-284.44 74.92,-403.76 49.95,-119.32 123.49,-213.67 220.61,-283.05 97.13,-69.37 216.91,-104.06 359.36,-104.06 143.37,0 268.25,34.23 374.62,102.68 106.37,68.44 189.16,161.87 247.9,280.73 58.74,118.86 87.87,254.83 87.87,407.46 0,149.85 -28.67,284.43 -86.48,403.76 -57.82,119.32 -138.75,213.67 -242.35,283.04 -103.6,69.38 -224.31,104.06 -362.14,104.06zm-738.14 624.37l0 -2164.47 333 0 0 1026.74 47.17 0 0 1137.73 -380.17 0zm677.1 -960.14c81.39,0 147.99,-20.35 199.79,-61.05 51.8,-40.7 90.19,-95.73 115.16,-164.64 24.98,-68.92 37.47,-145.23 37.47,-229.4 0,-83.25 -12.95,-159.56 -38.85,-228.47 -25.9,-68.92 -65.68,-123.95 -119.79,-165.12 -54.11,-41.16 -123.49,-61.51 -207.66,-61.51 -78.62,0 -141.99,18.97 -190.55,56.89 -48.56,37.92 -84.17,91.11 -106.37,159.56 -22.2,68.45 -33.3,148 -33.3,238.65 0,90.65 11.1,170.2 33.3,238.65 22.2,68.44 58.74,121.63 109.15,159.56 50.41,37.92 117.47,56.88 201.65,56.88z"/>
   <path id="13" class="fil5" d="M77635.49 42883.62c-153.55,0 -288.6,-33.3 -405.61,-99.43 -117.01,-66.14 -208.59,-157.25 -274.72,-273.34 -66.14,-116.08 -99.44,-248.82 -99.44,-398.67 0,-163.72 32.37,-306.17 97.12,-427.34 64.75,-121.18 154.01,-215.53 267.79,-282.59 113.77,-67.06 244.66,-100.36 392.66,-100.36 157.24,0 290.9,37 400.98,111 110.07,74 191.47,178.06 244.2,312.18 52.72,134.13 71.22,291.84 55.5,473.14l-373.24 0 0 -138.75c0,-152.62 -24.05,-262.7 -72.61,-329.76 -48.56,-67.06 -128.11,-100.36 -238.18,-100.36 -128.58,0 -222.93,38.85 -283.51,117.01 -60.59,78.16 -91.12,193.78 -91.12,346.41 0,139.67 30.53,247.43 91.12,323.74 60.58,76.32 149.38,114.7 266.86,114.7 73.99,0 137.36,-16.18 190.08,-48.56 52.73,-32.37 92.96,-79.09 120.71,-140.13l377.4 108.22c-56.43,136.9 -145.23,243.27 -266.86,319.12 -121.64,75.85 -254.84,113.77 -399.13,113.77zm-496.72 -685.41l0 -280.28 993.44 0 0 280.28 -993.44 0z"/>
   <path id="14" class="fil5" d="M78626.15 42842l0 -1498.48 332.99 0 0 366.29 -36.07 -47.17c19.42,-51.8 45.32,-98.98 77.7,-141.53 32.37,-42.55 72.15,-77.69 119.32,-105.44 36.08,-22.2 75.39,-39.78 117.94,-52.27 42.55,-12.48 86.49,-20.35 131.81,-23.58 45.32,-3.24 90.65,-1.85 135.97,3.7l0 352.42c-41.62,-12.95 -89.72,-17.58 -144.76,-13.41 -55.03,4.16 -104.98,17.11 -149.38,38.38 -44.4,20.35 -81.87,47.18 -112.39,80.94 -30.52,33.76 -53.65,73.54 -69.37,119.32 -15.73,45.79 -23.59,97.59 -23.59,154.94l0 765.89 -380.17 0z"/>
   <path id="15" class="fil5" d="M80299.46 42883.62c-188.7,0 -340.86,-43.01 -456.95,-128.57 -116.08,-85.56 -186.85,-206.27 -211.82,-362.6l385.72 -58.27c15.72,70.3 50.87,125.34 104.99,165.11 54.11,39.78 122.56,59.66 205.81,59.66 68.45,0 121.17,-13.41 158.17,-39.77 37,-26.36 55.5,-62.9 55.5,-110.08 0,-29.6 -7.4,-53.64 -22.2,-71.68 -14.8,-18.04 -47.64,-35.61 -98.97,-53.19 -51.34,-17.57 -131.35,-40.7 -239.58,-69.37 -122.1,-31.45 -219.68,-66.6 -292.76,-105.45 -73.07,-38.85 -125.8,-85.56 -158.17,-139.68 -32.37,-54.11 -48.56,-119.32 -48.56,-196.09 0,-96.2 24.51,-179.91 73.53,-250.68 49.03,-70.76 118.4,-125.33 207.67,-163.72 89.26,-38.39 194.24,-57.35 315.42,-57.35 117.47,0 221.53,18.04 312.18,54.11 90.65,36.08 164.19,87.42 220.15,154.01 55.96,66.6 90.19,145.23 103.13,235.88l-385.72 69.37c-6.47,-55.5 -30.52,-99.44 -72.15,-131.81 -41.62,-32.37 -98.04,-51.34 -169.27,-56.89 -69.37,-4.62 -124.87,4.63 -166.96,27.75 -42.09,23.13 -63.36,56.43 -63.36,99.9 0,25.9 9.25,47.64 27.29,65.21 18.03,17.58 55.5,35.62 112.38,54.12 56.89,18.5 143.38,42.54 259.92,72.14 113.78,29.6 205.35,63.83 274.26,103.14 68.92,39.31 118.87,86.49 150.32,141.52 31.44,55.04 47.17,121.64 47.17,199.34 0,153.55 -55.5,274.26 -166.5,362.13 -111,87.88 -264.55,131.81 -460.64,131.81z"/>
   <path id="16" class="fil5" d="M82644.3 42883.62c-199.79,0 -371.84,-43.47 -516.6,-130.42 -144.76,-86.95 -256.23,-208.58 -334.39,-364.91 -78.16,-156.32 -117.47,-338.08 -117.47,-545.28 0,-207.2 39.31,-388.96 117.47,-545.28 78.16,-156.32 189.63,-277.96 334.39,-364.91 144.76,-86.95 316.81,-130.42 516.6,-130.42 229.4,0 422.26,56.88 578.12,170.66 155.86,113.77 265.47,267.78 329.3,462.03l-380.17 105.45c-37,-121.17 -99.44,-215.52 -187.31,-282.59 -87.88,-67.06 -201.19,-100.36 -339.94,-100.36 -126.72,0 -232.17,28.22 -316.81,84.64 -84.63,56.42 -148.46,135.97 -191.01,238.65 -42.55,102.67 -63.82,223.38 -63.82,362.13 0,138.75 21.27,259.46 63.82,362.13 42.55,102.68 106.38,182.23 191.01,238.65 84.64,56.43 190.09,84.64 316.81,84.64 138.75,0 252.06,-33.76 339.94,-101.29 87.87,-67.52 150.31,-161.41 187.31,-281.66l380.17 105.45c-63.83,194.25 -173.44,348.26 -329.3,462.03 -155.86,113.78 -348.72,170.66 -578.12,170.66z"/>
   <polygon id="17" class="fil5" points="83884.72,42842 83884.72,40802.4 84262.11,40802.4 84262.11,42842 "/>
   <path id="18" class="fil5" d="M85236.13 42886.4c-117.48,0 -213.21,-19.89 -287.21,-59.66 -74,-39.78 -131.35,-90.19 -172.51,-151.24 -41.17,-61.05 -70.76,-124.87 -88.34,-191.01 -17.57,-66.14 -28.21,-126.26 -31.91,-180.83 -3.7,-54.58 -5.55,-94.35 -5.55,-119.33l0 -840.81 382.94 0 0 707.61c0,34.23 1.85,77.7 5.55,130.89 3.7,53.19 15.27,106.84 34.69,160.49 19.43,53.64 51.34,98.51 95.28,134.58 43.93,36.08 105.91,54.11 186.38,54.11 32.38,0 67.06,-5.08 104.06,-15.26 37,-10.17 71.69,-30.06 104.06,-59.2 32.38,-29.14 59.2,-72.15 80.01,-129.03 20.82,-56.89 30.99,-131.35 30.99,-223.85l216.45 102.67c0,118.4 -24.05,229.4 -72.15,333 -48.1,103.6 -120.25,187.31 -216.91,251.13 -96.66,63.83 -218.76,95.74 -365.83,95.74zm485.62 -44.4l0 -496.72 -47.18 0 0 -1001.76 380.17 0 0 1498.48 -332.99 0z"/>
   <path id="19" class="fil5" d="M87178.6 42883.62c-148.92,0 -273.33,-34.68 -373.23,-104.06 -99.9,-69.37 -174.82,-163.72 -225.23,-283.04 -50.42,-119.33 -75.85,-253.91 -75.85,-403.76 0,-149.85 24.97,-284.44 74.92,-403.76 49.95,-119.32 123.49,-213.67 220.61,-283.05 97.13,-69.37 216.91,-104.06 359.36,-104.06 143.37,0 268.25,34.23 374.62,102.68 106.37,68.44 189.16,161.87 247.9,280.73 58.74,118.86 87.87,254.83 87.87,407.46 0,149.85 -28.67,284.43 -86.48,403.76 -57.82,119.32 -138.75,213.67 -242.35,283.04 -103.6,69.38 -224.31,104.06 -362.14,104.06zm-738.14 -41.62l0 -1997.98 380.17 0 0 971.24 -47.17 0 0 1026.74 -333 0zm677.1 -294.15c81.39,0 147.99,-20.35 199.79,-61.05 51.8,-40.7 90.19,-95.73 115.16,-164.64 24.98,-68.92 37.47,-145.23 37.47,-229.4 0,-83.25 -12.95,-159.56 -38.85,-228.47 -25.9,-68.92 -65.68,-123.95 -119.79,-165.12 -54.11,-41.16 -123.49,-61.51 -207.66,-61.51 -78.62,0 -141.99,18.97 -190.55,56.89 -48.56,37.92 -84.17,91.11 -106.37,159.56 -22.2,68.45 -33.3,148 -33.3,238.65 0,90.65 11.1,170.2 33.3,238.65 22.2,68.44 58.74,121.63 109.15,159.56 50.41,37.92 117.47,56.88 201.65,56.88z"/>
   <path id="20" class="fil5" d="M56863.47 45844.54c-127.19,0 -239.35,-26.21 -336.86,-78.63 -97.51,-52.41 -174.21,-126.41 -229.71,-222 -55.5,-95.58 -83.25,-207.35 -83.25,-335.31l0 -1062.59 171.13 -1.16 0 1041.78c0,86.33 14.65,160.72 43.94,223.54 29.29,62.83 67.83,114.47 115.24,154.94 47.4,40.47 99.05,70.53 155.32,89.8 56.27,19.27 111,28.91 164.19,28.91 53.96,0 109.07,-9.64 165.34,-28.91 56.27,-19.27 107.92,-49.33 154.94,-89.8 47.02,-40.47 85.18,-92.11 114.47,-154.94 29.29,-62.82 43.93,-137.21 43.93,-223.54l0 -1041.78 171.13 0 0 1063.75c0,127.96 -27.75,239.34 -83.25,334.54 -55.5,95.2 -131.81,169.2 -229.32,222 -97.51,52.8 -210.06,79.4 -337.24,79.4z"/>
   <path id="21" class="fil5" d="M58738.9 45809.85l0 -637.09c0,-69.38 -6.55,-133.36 -19.66,-191.56 -13.1,-58.19 -33.91,-109.07 -62.82,-152.62 -28.91,-43.55 -66.29,-77.08 -112.16,-100.98 -45.86,-23.9 -101.75,-35.84 -167.27,-35.84 -60.12,0 -112.92,10.4 -158.79,31.22 -45.86,20.81 -84.4,50.48 -115.62,89.41 -31.22,38.93 -55.12,86.34 -71.31,141.84 -16.18,55.5 -24.28,118.7 -24.28,189.62l-120.25 -26.59c0,-127.96 22.36,-235.49 67.07,-322.6 44.7,-87.1 106.37,-153.01 185,-197.72 78.62,-44.7 168.81,-67.06 270.56,-67.06 74.77,0 140.29,11.56 196.18,34.69 55.88,23.12 103.29,54.34 142.21,93.66 38.93,39.31 70.15,84.02 94.05,134.51 23.89,50.49 41.24,104.06 52.03,160.71 10.79,56.66 16.18,113.32 16.18,169.59l0 686.81 -171.12 0zm-903.03 0l0 -1248.75 153.78 0 0 307.56 17.34 0 0 941.19 -171.12 0z"/>
   <path id="22" class="fil5" d="M59233.77 44324.07l0 -190.78 169.97 0 0 190.78 -169.97 0zm0 1485.78l0 -1248.75 169.97 0 0 1248.75 -169.97 0z"/>
   <polygon id="23" class="fil5" points="60088.24,45809.85 59634.99,44561.1 59807.27,44561.1 60176.11,45587.85 60542.65,44561.1 60717.24,44561.1 60263.99,45809.85 "/>
   <path id="24" class="fil5" d="M61407.52 45844.54c-121.79,0 -227.01,-26.98 -316.04,-80.94 -89.03,-53.96 -158.41,-129.89 -207.74,-227.78 -49.33,-97.9 -74,-212.75 -74,-344.56 0,-136.44 24.28,-254.38 72.84,-353.82 48.57,-99.43 117.17,-176.13 205.43,-230.09 88.26,-53.96 192.32,-80.94 312.57,-80.94 123.34,0 228.56,28.14 315.66,84.79 87.1,56.66 153.01,137.98 197.72,243.59 44.71,105.6 65.13,231.63 61.28,378.09l-173.44 0 0 -60.12c-3.08,-161.88 -37.77,-284.06 -104.45,-366.53 -66.67,-82.48 -164.18,-123.72 -292.14,-123.72 -134.13,0 -236.65,43.55 -307.95,130.65 -71.3,87.11 -107.15,211.21 -107.15,372.32 0,157.25 35.85,279.04 107.15,365.76 71.3,86.71 172.28,130.27 303.32,130.27 89.42,0 167.66,-20.82 234.34,-62.06 66.67,-41.24 119.09,-100.59 157.63,-178.44l158.41 61.28c-49.33,108.69 -121.79,192.71 -217.76,252.45 -95.97,59.73 -204.66,89.8 -325.68,89.8zm-477.53 -611.66l0 -142.22 953.91 0 0 142.22 -953.91 0z"/>
   <path id="25" class="fil5" d="M62230.77 45809.85l0 -1248.75 152.63 0 0 300.63 -30.06 -39.32c13.87,-37 31.99,-71.3 54.34,-102.52 22.36,-31.22 46.64,-56.65 72.84,-76.7 32.38,-28.52 70.15,-50.49 113.32,-65.52 43.16,-15.03 86.72,-23.89 130.65,-26.59 43.94,-2.7 84.02,0.77 120.25,10.02l0 159.56c-45.48,-11.56 -95.19,-14.26 -149.15,-8.09 -53.96,6.17 -103.68,27.75 -149.16,64.75 -41.62,32.37 -72.84,70.92 -93.66,116.01 -20.81,45.09 -34.68,92.88 -41.62,143.37 -6.94,50.49 -10.41,100.6 -10.41,149.93l0 623.22 -169.97 0z"/>
   <path id="26" class="fil5" d="M63484.15 45843.38c-146.45,0 -266.7,-31.6 -361.13,-94.81 -94.43,-63.21 -152.63,-151.08 -174.21,-263.63l173.44 -28.9c18.5,70.91 60.89,127.19 126.8,169.2 65.91,42.01 147.23,63.2 244.35,63.2 94.82,0 169.59,-20.04 224.32,-59.74 54.73,-39.69 82.09,-93.65 82.09,-162.26 0,-38.54 -8.48,-70.14 -25.82,-94.42 -17.35,-24.28 -52.81,-46.64 -105.99,-67.45 -53.19,-20.81 -132.59,-45.48 -238.19,-74 -113.31,-30.83 -201.96,-61.67 -265.94,-92.5 -63.98,-30.83 -109.46,-66.68 -136.44,-107.15 -26.97,-40.47 -40.46,-89.8 -40.46,-148.38 0,-70.92 20.04,-133.36 60.12,-186.93 40.08,-53.57 95.58,-95.2 166.5,-124.87 70.92,-29.68 153.4,-44.33 247.44,-44.33 94.04,0 178.45,15.03 252.83,45.48 74.39,30.45 134.13,73.23 179.61,127.96 45.48,54.73 72.45,118.32 80.93,190.78l-173.43 31.22c-11.57,-73.23 -47.8,-131.43 -109.08,-174.21 -61.28,-42.78 -139.13,-64.75 -233.17,-66.29 -88.65,-2.31 -160.72,14.26 -216.22,50.1 -55.5,35.85 -83.25,83.64 -83.25,142.99 0,33.15 10.02,61.29 30.06,84.8 20.04,23.51 56.66,45.86 109.46,66.67 52.8,20.82 127.96,43.55 225.85,68.22 114.86,29.29 205.04,60.13 270.56,92.5 65.53,32.38 112.16,70.53 139.91,114.47 27.75,43.94 41.63,98.28 41.63,163.03 0,117.94 -43.56,210.44 -131.05,277.89 -87.49,67.44 -208.12,101.36 -361.52,101.36z"/>
   <path id="27" class="fil5" d="M64255.37 44324.07l0 -190.78 169.97 0 0 190.78 -169.97 0zm0 1485.78l0 -1248.75 169.97 0 0 1248.75 -169.97 0z"/>
   <path id="28" class="fil5" d="M65452.09 45809.85c-70.15,14.65 -139.14,20.43 -207.35,17.34 -68.22,-3.08 -129.12,-17.73 -182.69,-43.93 -53.57,-26.21 -94.43,-67.07 -122.18,-122.57 -22.35,-46.25 -34.3,-93.27 -36.23,-140.67 -1.93,-47.41 -3.08,-101.37 -3.08,-162.26l0 -1143.53 168.81 0 0 1136.59c0,52.42 0.77,95.97 1.93,131.04 1.15,35.07 8.86,66.29 23.51,93.27 27.75,51.65 72.07,82.48 132.58,92.5 60.51,10.02 135.28,7.71 224.7,-6.94l0 149.16zm-818.63 -1103.06l0 -145.69 818.63 0 0 145.69 -818.63 0z"/>
   <polygon id="29" class="fil5" points="65841.75,46364.85 66083.4,45709.26 66086.87,45903.51 65539.97,44561.1 65720.34,44561.1 66168.97,45683.82 66094.97,45683.82 66508.9,44561.1 66682.34,44561.1 66011.72,46364.85 "/>
   <path id="30" class="fil5" d="M67867.49 45844.54c-124.1,0 -230.09,-28.14 -317.97,-84.41 -87.87,-56.27 -155.32,-134.12 -202.34,-233.56 -47.02,-99.44 -70.53,-213.52 -70.53,-342.25 0,-131.04 23.9,-245.9 71.69,-344.56 47.79,-98.67 116.01,-175.75 204.27,-230.87 88.26,-55.11 193.09,-82.48 314.88,-82.48 124.88,0 231.64,27.75 319.9,83.64 88.26,55.88 155.71,133.35 202.34,232.4 46.64,99.06 69.76,213.14 69.76,341.87 0,131.04 -23.51,245.89 -70.53,344.95 -47.02,99.05 -114.85,176.52 -203.5,232.02 -88.64,55.5 -194.63,83.25 -317.97,83.25zm0 -163.03c138.75,0 242.05,-46.25 309.88,-138.37 67.83,-92.11 101.75,-211.59 101.75,-358.82 0,-151.08 -33.92,-271.33 -102.14,-360.75 -68.22,-89.42 -171.51,-134.13 -309.49,-134.13 -93.27,0 -169.97,20.82 -230.48,62.83 -60.51,42.01 -105.6,100.21 -135.28,174.59 -29.67,74.39 -44.71,160.33 -44.71,257.46 0,150.31 34.69,270.56 104.07,361.13 69.37,90.58 171.51,136.06 306.4,136.06z"/>
   <path id="31" class="fil5" d="M68837.58 45809.85l0 -1341.25c0,-32.37 1.93,-64.36 5.4,-95.97 3.47,-31.6 10.41,-62.05 21.2,-90.96 10.79,-28.9 27.75,-55.5 50.87,-80.16 25.44,-27.75 53.19,-48.18 83.25,-60.9 30.06,-12.72 61.67,-20.81 94.43,-24.67 32.76,-3.85 64.75,-5.78 96.35,-5.78l159.57 0 0 143.38 -148 0c-64.75,0 -112.93,15.8 -144.92,47.4 -31.99,31.61 -48.18,81.33 -48.18,149.16l0 1359.75 -169.97 0zm-216.22 -1103.06l0 -145.69 727.29 0 0 145.69 -727.29 0z"/>
   <polygon id="32" class="fil5" points="69996.14,45809.85 69996.14,44144.85 71036.77,44144.85 71036.77,44307.88 70166.11,44307.88 70166.11,44883.69 70898.02,44883.69 70898.02,45046.73 70166.11,45046.73 70166.11,45646.82 71036.77,45646.82 71036.77,45809.85 "/>
   <polygon id="33" class="fil5" points="71337.39,45809.85 71337.39,44110.16 71507.36,44110.16 71507.36,45809.85 "/>
   <path id="34" class="fil5" d="M72838.2 45844.54c-124.1,0 -230.09,-28.14 -317.97,-84.41 -87.87,-56.27 -155.32,-134.12 -202.34,-233.56 -47.02,-99.44 -70.53,-213.52 -70.53,-342.25 0,-131.04 23.9,-245.9 71.69,-344.56 47.79,-98.67 116.01,-175.75 204.27,-230.87 88.26,-55.11 193.09,-82.48 314.88,-82.48 124.88,0 231.64,27.75 319.9,83.64 88.26,55.88 155.71,133.35 202.34,232.4 46.64,99.06 69.76,213.14 69.76,341.87 0,131.04 -23.51,245.89 -70.53,344.95 -47.02,99.05 -114.85,176.52 -203.5,232.02 -88.64,55.5 -194.63,83.25 -317.97,83.25zm0 -163.03c138.75,0 242.05,-46.25 309.88,-138.37 67.83,-92.11 101.75,-211.59 101.75,-358.82 0,-151.08 -33.92,-271.33 -102.14,-360.75 -68.22,-89.42 -171.51,-134.13 -309.49,-134.13 -93.27,0 -169.97,20.82 -230.48,62.83 -60.51,42.01 -105.6,100.21 -135.28,174.59 -29.67,74.39 -44.71,160.33 -44.71,257.46 0,150.31 34.69,270.56 104.07,361.13 69.37,90.58 171.51,136.06 306.4,136.06z"/>
   <path id="35" class="fil5" d="M74162.11 45841.07c-74.77,0 -139.91,-11.56 -195.8,-34.69 -55.88,-23.12 -103.29,-54.34 -142.21,-93.65 -38.93,-39.32 -70.54,-84.41 -94.43,-134.9 -23.9,-50.49 -41.24,-104.06 -52.03,-160.72 -10.79,-56.66 -16.19,-112.93 -16.19,-169.2l0 -686.81 171.12 0 0 637.09c0,68.61 6.56,132.2 19.66,190.79 13.11,58.58 34.3,109.45 63.21,153.01 28.91,43.55 66.29,77.46 112.16,101.36 45.86,23.9 101.36,35.84 166.88,35.84 60.13,0 113.31,-10.4 159.18,-31.21 45.86,-20.82 84.4,-50.88 115.62,-89.81 31.22,-38.92 54.73,-86.33 70.92,-142.22 16.19,-55.88 24.28,-118.7 24.28,-188.85l120.25 26.59c0,127.96 -22.35,235.49 -67.06,322.6 -44.71,87.1 -106.38,153.01 -185,197.72 -78.63,44.7 -168.81,67.06 -270.56,67.06zm419.71 -31.22l0 -307.56 -17.34 0 0 -941.19 169.97 0 0 1248.75 -152.63 0z"/>
   <path id="36" class="fil5" d="M75586.6 45844.54c-121.79,0 -227.01,-26.98 -316.04,-80.94 -89.03,-53.96 -158.41,-129.89 -207.74,-227.78 -49.33,-97.9 -74,-212.75 -74,-344.56 0,-136.44 24.28,-254.38 72.84,-353.82 48.57,-99.43 117.17,-176.13 205.43,-230.09 88.26,-53.96 192.32,-80.94 312.57,-80.94 123.34,0 228.56,28.14 315.66,84.79 87.1,56.66 153.01,137.98 197.72,243.59 44.71,105.6 65.13,231.63 61.28,378.09l-173.44 0 0 -60.12c-3.08,-161.88 -37.77,-284.06 -104.45,-366.53 -66.67,-82.48 -164.18,-123.72 -292.14,-123.72 -134.13,0 -236.65,43.55 -307.95,130.65 -71.3,87.11 -107.15,211.21 -107.15,372.32 0,157.25 35.85,279.04 107.15,365.76 71.3,86.71 172.28,130.27 303.32,130.27 89.42,0 167.66,-20.82 234.34,-62.06 66.67,-41.24 119.09,-100.59 157.63,-178.44l158.41 61.28c-49.33,108.69 -121.79,192.71 -217.76,252.45 -95.97,59.73 -204.66,89.8 -325.68,89.8zm-477.53 -611.66l0 -142.22 953.91 0 0 142.22 -953.91 0z"/>
   <path id="37" class="fil5" d="M76894.32 45844.54c-116.39,0 -215.83,-29.29 -298.31,-87.49 -82.48,-58.2 -145.69,-136.82 -189.62,-236.26 -43.94,-99.44 -65.91,-211.6 -65.91,-336.47 0,-124.11 21.97,-235.88 65.52,-335.31 43.55,-99.44 105.99,-178.07 187.7,-235.88 81.71,-57.81 179.6,-86.72 293.69,-86.72 117.16,0 215.83,28.52 296,85.57 80.16,57.04 141.06,134.89 182.3,233.94 41.24,99.06 61.66,211.98 61.66,338.4 0,124.1 -20.42,235.87 -61.28,335.7 -40.85,99.82 -100.98,178.83 -180.37,237.03 -79.4,58.2 -176.52,87.49 -291.38,87.49zm17.35 -158.41c88.64,0 161.87,-21.58 219.68,-64.75 57.82,-43.17 100.98,-102.9 129.5,-178.83 28.53,-75.93 42.79,-161.88 42.79,-258.23 0,-97.9 -14.26,-184.62 -42.79,-259.77 -28.52,-75.16 -71.3,-133.74 -128.72,-176.14 -57.43,-42.39 -129.89,-63.59 -216.99,-63.59 -89.42,0 -163.42,21.97 -222,65.91 -58.59,43.93 -101.75,103.67 -129.89,179.21 -28.13,75.55 -42.4,160.34 -42.4,254.38 0,94.81 14.65,179.99 43.56,255.92 28.9,75.92 72.07,136.05 129.88,179.99 57.81,43.93 130.27,65.9 217.38,65.9zm391.97 123.72l0 -940.03 -18.5 0 0 -724.97 171.12 0 0 1665 -152.62 0z"/>
  </g>
 </g>
</svg>
