<?xml version="1.0" encoding="UTF-8"?>
<!DOCTYPE svg PUBLIC "-//W3C//DTD SVG 1.1//EN" "http://www.w3.org/Graphics/SVG/1.1/DTD/svg11.dtd">
<!-- Creator: CorelDRAW 2020 (64-Bit Evaluation Version) -->
<svg xmlns="http://www.w3.org/2000/svg" xml:space="preserve" width="350mm" height="250mm" version="1.1" style="shape-rendering:geometricPrecision; text-rendering:geometricPrecision; image-rendering:optimizeQuality; fill-rule:evenodd; clip-rule:evenodd"
viewBox="0 0 35000 25000"
 xmlns:xlink="http://www.w3.org/1999/xlink"
 xmlns:xodm="http://www.corel.com/coreldraw/odm/2003">
 <defs>
  <style type="text/css">
   <![CDATA[
    .fil0 {fill:#002253}
   ]]>
  </style>
 </defs>
 <g id="Layer_x0020_1">
  <metadata id="CorelCorpID_0Corel-Layer"/>
  <path class="fil0" d="M11649.29 11070.97l0 -2868.61c-2868.61,0 -5737.21,0 -8605.82,0 0,2868.61 0,5737.21 0,8605.82l2868.61 0 0 -5737.21 5737.21 0zm11700.23 5737.16c0,-2868.56 0,-5737.16 0,-8605.77l8605.82 0 0 2868.61 -5737.22 0 0 2868.6 5737.22 0 0 2868.56 -8605.82 0zm-10153.03 -2868.56l0 2868.61 8605.82 0c0,-2868.61 0,-5737.21 0,-8605.82l-8605.82 0 0 2868.61 5737.22 0 0 2868.6 -5737.22 0z"/>
 </g>
</svg>
